<?xml version="1.0" encoding="UTF-8" standalone="no"?>
<svg
   xmlns:dc="http://purl.org/dc/elements/1.1/"
   xmlns:cc="http://creativecommons.org/ns#"
   xmlns:rdf="http://www.w3.org/1999/02/22-rdf-syntax-ns#"
   xmlns:svg="http://www.w3.org/2000/svg"
   xmlns="http://www.w3.org/2000/svg"
   xmlns:sodipodi="http://sodipodi.sourceforge.net/DTD/sodipodi-0.dtd"
   xmlns:inkscape="http://www.inkscape.org/namespaces/inkscape"
   version="1.1"
   id="svg41117"
   viewBox="0 0 200 154.81912"
   height="154.81912"
   width="200"
   preserveAspectRatio="xMidYMid"
   inkscape:version="0.48.4 r9939"
   sodipodi:docname="ps-logo.svg">
  <sodipodi:namedview
     pagecolor="#ffffff"
     bordercolor="#666666"
     borderopacity="1"
     objecttolerance="10"
     gridtolerance="10"
     guidetolerance="10"
     inkscape:pageopacity="0"
     inkscape:pageshadow="2"
     inkscape:window-width="708"
     inkscape:window-height="480"
     id="namedview7"
     showgrid="false"
     inkscape:zoom="1.7483984"
     inkscape:cx="100"
     inkscape:cy="77.409561"
     inkscape:window-x="2279"
     inkscape:window-y="238"
     inkscape:window-maximized="0"
     inkscape:current-layer="svg41117" />
  <metadata
     id="metadata41126">
    <rdf:RDF>
      <cc:Work
         rdf:about="">
        <dc:format>image/svg+xml</dc:format>
        <dc:type
           rdf:resource="http://purl.org/dc/dcmitype/StillImage" />
        <dc:title />
      </cc:Work>
    </rdf:RDF>
  </metadata>
  <defs
     id="defs41119">
    <style
       id="style41121">

      .cls-2 {
        fill: #ffffff;
      }
    </style>
  </defs>
  <path
     style="fill:#000000;fill-opacity:1;fill-rule:evenodd"
     class="cls-2"
     id="path-1"
     d="m 197.23914,117.96194 c -3.8677,4.8796 -13.34356,8.36053 -13.34356,8.36053 l -70.49109,25.31994 0,-18.67289 51.87665,-18.48401 c 5.887,-2.10924 6.79096,-5.09097 2.00581,-6.65604 -4.77616,-1.56957 -13.42451,-1.11983 -19.31601,0.99841 l -34.56645,12.17426 0,-19.37898 1.99232,-0.6746 c 0,0 9.98856,-3.534896 24.03371,-5.09097 14.04515,-1.547081 31.24291,0.211374 44.74389,5.32933 15.21445,4.80764 16.92793,11.89543 13.06473,16.77502 z m -77.12463,-31.796087 0,-47.752601 c 0,-5.608163 -1.03439,-10.771093 -6.29626,-12.232725 -4.0296,-1.290734 -6.53012,2.45104 -6.53012,8.054706 l 0,119.583887 -32.250314,-10.23591 0,-142.58321 c 13.712343,2.54549 33.689454,8.56291 44.429074,12.18326 27.31226,9.376917 36.57225,21.047482 36.57225,47.343343 0,25.630256 -15.82159,35.344478 -35.92463,25.63925 z M 15.862004,131.01768 C 0.24279269,126.6193 -2.3566614,117.45375 4.7626047,112.17389 c 6.5795883,-4.8751 17.7689333,-8.54492 17.7689333,-8.54492 l 46.241498,-16.442224 0,18.744854 -33.275709,11.90892 c -5.878004,2.10924 -6.781967,5.09547 -2.005807,6.66054 4.780657,1.56506 13.433512,1.11983 19.320511,-0.99391 l 15.961005,-5.79256 0,16.77053 c -1.011893,0.17989 -2.140724,0.35978 -3.184104,0.53518 -15.965505,2.60845 -32.969893,1.5201 -49.726928,-4.00262 z"
     inkscape:connector-curvature="0"
     sodipodi:nodetypes="ccccccccccccccscsccccsccccccccccccc" />
</svg>
