<?xml version="1.0" encoding="UTF-8" standalone="no"?>
<!-- Generator: Adobe Illustrator 14.0.0, SVG Export Plug-In . SVG Version: 6.00 Build 43363)  -->

<svg
   xmlns:dc="http://purl.org/dc/elements/1.1/"
   xmlns:cc="http://creativecommons.org/ns#"
   xmlns:rdf="http://www.w3.org/1999/02/22-rdf-syntax-ns#"
   xmlns:svg="http://www.w3.org/2000/svg"
   xmlns="http://www.w3.org/2000/svg"
   xmlns:sodipodi="http://sodipodi.sourceforge.net/DTD/sodipodi-0.dtd"
   xmlns:inkscape="http://www.inkscape.org/namespaces/inkscape"
   version="1.1"
   id="Layer_1"
   x="0px"
   y="0px"
   width="40"
   height="30"
   viewBox="0 0 39.999999 30"
   xml:space="preserve"
   inkscape:version="0.48.2 r9819"
   sodipodi:docname="Blackberry_Logo.svg"><metadata
   id="metadata55"><rdf:RDF><cc:Work
       rdf:about=""><dc:format>image/svg+xml</dc:format><dc:type
         rdf:resource="http://purl.org/dc/dcmitype/StillImage" /></cc:Work></rdf:RDF></metadata><defs
   id="defs53" /><sodipodi:namedview
   pagecolor="#ffffff"
   bordercolor="#666666"
   borderopacity="1"
   objecttolerance="10"
   gridtolerance="10"
   guidetolerance="10"
   inkscape:pageopacity="0"
   inkscape:pageshadow="2"
   inkscape:window-width="1920"
   inkscape:window-height="1087"
   id="namedview51"
   showgrid="false"
   fit-margin-top="0"
   fit-margin-left="0"
   fit-margin-right="0"
   fit-margin-bottom="0"
   inkscape:zoom="3.0374886"
   inkscape:cx="159.9751"
   inkscape:cy="-61.356942"
   inkscape:window-x="0"
   inkscape:window-y="0"
   inkscape:window-maximized="1"
   inkscape:current-layer="g5"
   viewbox="0 0 40 30" />
<g
   id="g3"
   transform="translate(-4.1840025,-19.118998)">
	<g
   id="g5">
		
		<g
   id="g27"
   transform="translate(0,12)">
			<path
   d="m 16.451,11.896 c 0,-1.264 -0.774,-2.864 -4.027,-2.864 -1.335,0 -5.009,0 -5.009,0 L 5.991,15.62 c 0,0 2.707,0 5.222,0 4.077,0 5.238,-1.93 5.238,-3.724 z"
   id="path29"
   inkscape:connector-curvature="0" />
			<path
   d="m 29.944,11.896 c 0,-1.264 -0.772,-2.864 -4.024,-2.864 -1.336,0 -5.01,0 -5.01,0 l -1.423,6.587 c 0,0 2.706,0 5.219,0 4.079,10e-4 5.238,-1.929 5.238,-3.723 z"
   id="path31"
   inkscape:connector-curvature="0" />
			<path
   d="m 14.644,21.811 c 0,-1.264 -0.774,-2.868 -4.027,-2.868 -1.335,0 -5.009,0 -5.009,0 l -1.424,6.592 c 0,0 2.707,0 5.22,0 4.078,0 5.24,-1.935 5.24,-3.724 z"
   id="path33"
   inkscape:connector-curvature="0" />
			<path
   d="m 28.137,21.811 c 0,-1.264 -0.775,-2.868 -4.025,-2.868 -1.337,0 -5.009,0 -5.009,0 l -1.426,6.592 c 0,0 2.707,0 5.222,0 4.079,0 5.238,-1.935 5.238,-3.724 z"
   id="path35"
   inkscape:connector-curvature="0" />
			<path
   d="m 42.254,17.79 c 0,-1.265 -0.775,-2.868 -4.025,-2.868 -1.337,0 -5.009,0 -5.009,0 l -1.426,6.591 c 0,0 2.709,0 5.22,0 4.079,0 5.24,-1.93 5.24,-3.723 z"
   id="path37"
   inkscape:connector-curvature="0" />
			<path
   d="m 40.308,28.113 c 0,-1.265 -0.773,-2.864 -4.025,-2.864 -1.335,0 -5.009,0 -5.009,0 l -1.424,6.588 c 0,0 2.705,0 5.22,0 4.078,0 5.238,-1.935 5.238,-3.724 z"
   id="path39"
   inkscape:connector-curvature="0" />
			<path
   d="m 26.198,32.135 c 0,-1.27 -0.772,-2.873 -4.022,-2.873 -1.338,0 -5.012,0 -5.012,0 l -1.424,6.591 c 0,0 2.707,0 5.22,0 4.079,10e-4 5.238,-1.929 5.238,-3.718 z"
   id="path41"
   inkscape:connector-curvature="0" />
		</g>
	</g>
	<rect
   width="240.5"
   height="53.5"
   id="rect43"
   x="0"
   y="0"
   style="fill:none" />
	
</g>
</svg>