<?xml version="1.0" standalone="no"?>
<!DOCTYPE svg PUBLIC "-//W3C//DTD SVG 20010904//EN"
 "http://www.w3.org/TR/2001/REC-SVG-20010904/DTD/svg10.dtd">
<svg version="1.0" xmlns="http://www.w3.org/2000/svg"
 width="1100.000000pt" height="900.000000pt" viewBox="0 0 1100.000000 900.000000"
 preserveAspectRatio="xMidYMid meet">

<g transform="translate(0.000000,900.000000) scale(0.100000,-0.100000)"
fill="#000000" stroke="none">
<path d="M9580 8484 c-164 -35 -206 -61 -555 -345 -132 -107 -329 -266 -437
-352 -222 -178 -280 -237 -331 -340 l-35 -73 -483 -339 c-266 -187 -513 -361
-550 -387 l-66 -47 -64 43 -64 44 -1065 157 c-586 86 -1075 159 -1086 162 -17
3 -30 25 -54 91 -40 109 -135 294 -164 320 -29 27 -257 162 -273 162 -16 0
-16 -1 -2 40 9 25 23 37 64 55 59 27 64 37 85 193 10 72 9 87 -4 108 -13 19
-15 40 -10 108 l7 85 -36 17 c-23 11 -41 30 -53 56 -28 63 -114 144 -191 181
-66 31 -72 32 -198 32 -120 0 -134 -2 -188 -27 -108 -51 -207 -169 -223 -265
-5 -33 -12 -44 -34 -53 -60 -25 -65 -40 -65 -183 0 -150 5 -166 65 -194 22
-10 40 -23 40 -30 0 -6 2 -18 5 -25 4 -11 -32 -25 -154 -57 -88 -24 -172 -51
-188 -61 -22 -13 -39 -43 -75 -136 -69 -172 -103 -298 -128 -473 -32 -220 -19
-314 61 -435 17 -26 30 -48 28 -50 -2 -2 -105 -72 -229 -156 -297 -202 -793
-573 -819 -613 -35 -54 -93 -777 -107 -1354 l-7 -263 -166 -148 c-251 -222
-459 -422 -741 -708 -322 -327 -327 -333 -345 -420 -17 -82 -39 -331 -33 -383
4 -31 -4 -48 -59 -128 -194 -279 -258 -611 -197 -1010 58 -377 306 -718 562
-772 38 -8 1090 -11 3786 -11 l3732 0 70 41 c163 98 393 302 542 480 227 272
444 698 555 1089 103 362 147 685 152 1125 l4 260 143 103 c170 123 185 136
193 172 9 43 -10 99 -90 267 -186 389 -408 628 -686 740 -153 62 -655 131
-1076 149 -186 8 -172 -2 -174 124 -1 98 -17 158 -49 181 -18 13 -65 23 -160
35 -74 9 -136 17 -138 18 -1 2 -7 41 -12 87 -14 112 -54 277 -101 418 -22 63
-39 116 -39 117 0 2 48 29 108 60 59 32 307 165 551 296 l445 238 84 0 c46 0
111 7 145 16 49 13 356 140 1092 452 54 23 149 86 213 140 104 89 196 238 234
381 26 99 29 295 5 393 -76 312 -351 564 -661 607 -103 15 -226 13 -306 -5z
m290 -155 c181 -29 347 -145 448 -311 90 -151 114 -367 57 -528 -63 -179 -231
-343 -405 -395 -76 -23 -243 -31 -322 -16 -217 43 -419 220 -489 428 -12 38
-24 106 -28 162 l-6 96 -24 -60 c-13 -33 -27 -88 -30 -123 l-6 -62 -350 -241
-350 -240 -8 43 c-23 123 16 279 96 375 67 81 564 499 852 716 193 147 353
191 565 156z m-5647 -150 c100 -15 191 -39 199 -52 13 -20 9 -101 -8 -156 -15
-52 -15 -52 -52 -49 -33 3 -38 7 -53 48 -16 42 -20 46 -63 54 -61 11 -88 3
-110 -34 -10 -17 -29 -35 -43 -41 -28 -10 -139 -12 -195 -3 -33 6 -39 11 -48
43 -5 20 -10 66 -10 103 0 97 2 98 171 98 77 0 173 -5 212 -11z m42 -279 c8
-24 21 -40 43 -49 38 -17 38 -19 11 -106 -19 -61 -24 -68 -62 -86 -56 -25
-127 -24 -188 2 -58 25 -78 56 -86 134 l-6 52 64 7 c81 10 120 26 138 60 12
21 21 26 45 24 24 -2 32 -10 41 -38z m-527 -467 c204 -203 530 -241 632 -75
30 49 32 50 63 41 86 -24 87 -25 87 -98 0 -62 13 -176 26 -226 5 -22 3 -22
-113 -28 -75 -4 -145 -14 -193 -28 -41 -12 -199 -82 -349 -155 -218 -106 -277
-132 -286 -122 -20 22 -128 199 -124 203 3 2 29 -12 59 -31 l55 -35 3 93 c5
117 -12 265 -44 387 -13 52 -22 97 -19 100 4 3 36 11 73 17 37 7 68 12 70 13
1 0 28 -25 60 -56z m4522 -285 c0 -72 24 -176 53 -237 l23 -50 -960 -585
c-529 -321 -965 -581 -969 -576 -5 4 -11 35 -14 69 -7 72 13 134 56 175 29 28
1791 1254 1804 1255 4 1 7 -23 7 -51z m-2510 -453 c635 -91 1164 -167 1175
-170 11 -2 28 -10 38 -17 16 -12 3 -24 -128 -116 l-145 -103 -660 91 c-416 57
-674 88 -696 84 -39 -7 -119 -57 -128 -80 -3 -8 8 -66 24 -129 39 -151 68
-356 76 -537 7 -141 6 -148 -12 -148 -33 0 -557 70 -562 74 -2 3 -10 67 -18
142 -26 267 -88 532 -191 823 -30 86 -57 169 -60 184 -8 44 19 67 81 67 28 0
571 -74 1206 -165z m275 -460 c263 -36 480 -67 482 -69 2 -2 -41 -34 -95 -71
-57 -39 -105 -78 -112 -94 -25 -53 -79 -210 -125 -361 -26 -85 -50 -158 -54
-162 -3 -4 -131 7 -284 24 -241 28 -277 34 -271 47 4 9 22 59 41 112 71 207
52 399 -57 568 -22 34 -40 64 -40 66 0 9 38 5 515 -60z m1519 -474 c37 -94 82
-278 96 -389 6 -51 10 -95 8 -96 -3 -4 -290 31 -325 39 -21 5 -21 6 -5 52 12
35 16 91 17 212 l1 163 80 44 c43 24 84 44 91 44 6 0 23 -31 37 -69z m-364
-258 c-5 -45 -14 -101 -21 -123 -10 -33 -16 -40 -38 -40 -45 1 -382 48 -389
55 -16 15 27 43 228 149 l215 113 7 -36 c4 -20 3 -73 -2 -118z m-811 -228
c882 -107 1608 -195 1613 -195 4 0 8 -29 8 -65 l0 -65 -113 0 c-142 0 -171
-14 -252 -117 -40 -52 -63 -73 -78 -73 -12 0 -338 33 -723 74 l-702 73 -58 52
c-179 160 -394 259 -663 306 -182 31 -592 75 -703 75 -16 0 -18 10 -18 71 l0
70 43 -6 c23 -3 764 -93 1646 -200z m-1679 -109 c497 -34 636 -51 832 -101
137 -34 197 -60 279 -117 154 -107 308 -296 399 -490 37 -79 81 -200 76 -205
-6 -7 -1620 137 -1626 144 -4 4 -19 44 -35 88 -81 234 -219 417 -376 500 -83
43 -82 43 -269 -17 -243 -79 -600 -232 -930 -399 -151 -76 -237 -121 -550
-290 -53 -29 -54 -29 -25 -4 37 32 317 221 445 302 384 240 806 445 1175 570
l130 44 125 -5 c69 -3 226 -12 350 -20z m3670 -406 c336 -18 812 -81 955 -127
184 -59 355 -200 494 -407 52 -78 154 -257 170 -299 10 -25 9 -27 -17 -27 -36
0 -1274 119 -1276 122 -1 2 -12 43 -24 93 -68 272 -254 492 -525 621 -42 20
-77 37 -77 39 0 1 21 1 48 -1 26 -2 139 -8 252 -14z m-1433 -110 c678 -65 703
-69 861 -147 195 -95 342 -232 416 -386 59 -123 78 -210 84 -391 l5 -149 -44
6 c-24 3 -500 47 -1056 98 l-1013 93 0 66 0 66 140 133 c127 120 140 136 140
167 0 75 -104 346 -182 472 l-20 32 25 0 c14 0 304 -27 644 -60z m-2678 -519
c157 -306 200 -700 120 -1096 -72 -355 -270 -685 -506 -841 -127 -85 -201
-108 -348 -109 -99 0 -131 4 -186 23 -132 45 -256 149 -355 298 -134 201 -202
422 -219 711 l-7 108 58 40 c32 22 62 42 66 43 4 2 8 -44 8 -101 0 -58 3 -112
6 -121 5 -13 23 -16 89 -16 45 0 103 -3 128 -6 l45 -6 16 -67 c8 -36 19 -77
22 -90 l7 -24 -131 5 c-147 6 -142 9 -120 -63 l11 -39 138 0 138 0 36 -71 c68
-136 161 -244 259 -299 l49 -29 -39 -8 c-57 -12 -203 -9 -244 5 -32 11 -33 10
-16 -3 37 -28 131 -58 201 -62 82 -6 202 22 273 63 60 35 163 134 221 212 227
307 311 797 205 1193 -24 89 -90 240 -133 305 l-21 31 78 56 c42 31 82 56 89
57 6 0 34 -45 62 -99z m1156 -221 c339 -22 625 -40 636 -40 18 0 19 -9 19
-205 l0 -206 -47 6 c-27 3 -117 10 -202 16 -124 9 -155 8 -162 -2 -4 -7 -11
-46 -15 -87 -5 -57 -3 -77 7 -87 12 -10 289 -35 393 -35 18 0 19 -6 13 -122
-7 -116 -45 -458 -53 -467 -2 -2 -92 2 -200 8 -161 10 -200 10 -210 -1 -7 -7
-19 -46 -26 -85 -10 -58 -10 -75 0 -85 9 -9 77 -17 202 -24 105 -6 192 -13
194 -15 8 -8 -64 -294 -110 -436 l-47 -143 -61 1 c-33 0 -126 4 -206 9 -107 6
-150 5 -163 -3 -23 -15 -78 -142 -71 -162 8 -20 35 -23 237 -31 97 -3 177 -10
177 -14 0 -23 -152 -305 -218 -405 l-78 -118 -229 2 -230 2 -50 -62 c-97 -120
-94 -128 39 -130 50 -1 136 -4 190 -8 l100 -6 -73 -63 c-85 -73 -186 -142
-292 -201 l-76 -41 -691 2 -692 3 89 68 c510 387 929 1149 1100 2002 55 274
78 490 93 888 l12 317 42 0 c24 0 320 -18 659 -40z m3727 -346 l537 -48 5 -40
c3 -23 7 -87 10 -143 l4 -103 -46 0 c-26 0 -110 5 -186 11 -112 8 -142 8 -151
-3 -19 -20 -28 -153 -12 -167 7 -5 98 -16 202 -23 l188 -12 -7 -113 c-6 -114
-27 -289 -48 -395 l-11 -58 -71 0 c-39 1 -131 5 -205 10 -74 4 -140 6 -147 3
-17 -6 -53 -144 -43 -164 8 -17 29 -19 307 -35 86 -5 112 -10 112 -21 0 -24
-115 -364 -147 -433 l-29 -65 -125 7 c-68 3 -168 7 -222 7 l-97 1 -37 -74
c-20 -40 -33 -80 -30 -89 6 -16 41 -21 289 -34 l136 -8 -70 -120 c-38 -66
-104 -169 -146 -229 l-77 -108 -230 1 -230 1 -58 -72 c-32 -39 -57 -78 -55
-87 3 -13 28 -17 158 -23 85 -4 173 -9 194 -10 l40 -3 -85 -71 c-46 -40 -119
-97 -163 -128 l-78 -56 -549 0 -548 0 173 173 c184 183 295 321 412 514 260
427 444 983 518 1563 22 172 39 452 35 584 l-4 117 25 -5 c14 -3 267 -26 562
-52z m-6588 -784 c9 -40 14 -76 12 -79 -4 -6 -128 -91 -565 -387 l-179 -121
-51 68 c-28 38 -72 85 -99 106 -26 21 -48 43 -49 48 -1 6 202 153 450 327
l452 317 7 -103 c4 -57 14 -136 22 -176z m-1042 -594 c54 -68 123 -212 149
-311 43 -169 34 -430 -22 -619 -60 -201 -212 -403 -356 -472 -47 -22 -76 -29
-148 -32 -50 -2 -109 1 -132 7 -65 18 -157 85 -209 154 -101 134 -160 302
-171 487 -5 92 9 298 23 333 4 12 86 68 91 63 2 -2 -3 -32 -12 -67 -17 -73
-31 -283 -21 -323 6 -25 8 -26 89 -26 l82 0 16 -60 16 -60 -89 0 c-88 0 -89 0
-83 -22 11 -36 17 -38 108 -45 l87 -6 31 -56 c35 -61 131 -167 160 -176 11 -4
19 -10 19 -15 0 -14 -108 -23 -150 -12 -56 14 -40 -3 21 -23 67 -23 170 -16
233 14 57 28 146 116 197 193 153 238 176 610 52 867 -34 71 -126 178 -177
206 -16 9 -12 15 40 52 l59 41 28 -20 c16 -11 47 -43 69 -72z m922 -9 l47 -58
-147 -70 c-81 -38 -149 -68 -150 -66 -10 9 -23 112 -16 119 10 10 216 137 218
135 1 -1 22 -28 48 -60z m832 -335 c80 -41 156 -158 190 -292 25 -95 22 -271
-5 -385 -48 -201 -170 -379 -307 -446 -57 -28 -70 -31 -142 -28 -104 5 -158
37 -223 132 -74 107 -94 183 -94 357 0 177 18 264 80 388 77 152 175 252 284
287 63 20 164 14 217 -13z m-965 -224 c105 -59 169 -205 169 -385 0 -183 -51
-335 -152 -447 -116 -130 -278 -144 -376 -31 -74 83 -112 201 -112 341 0 189
56 339 170 456 73 74 100 86 199 87 48 1 73 -4 102 -21z"/>
<path d="M9670 8224 c-201 -53 -351 -221 -381 -426 -9 -64 -8 -90 6 -159 23
-115 56 -180 136 -264 112 -118 221 -165 385 -165 154 0 265 48 379 165 45 46
90 114 80 123 -1 2 -133 -35 -292 -82 -159 -47 -297 -86 -307 -86 -9 0 -36 10
-59 21 l-42 22 40 19 c22 10 191 90 375 177 l335 158 3 34 c3 40 -19 109 -39
122 -10 6 -125 -56 -398 -213 -211 -122 -389 -219 -396 -217 -19 8 -67 96 -69
127 -1 23 39 64 286 293 182 169 294 267 307 267 12 0 44 -9 73 -20 l53 -19
-34 29 c-49 42 -138 86 -199 99 -72 15 -175 13 -242 -5z"/>
<path d="M4776 6689 c-33 -26 -35 -75 -5 -113 43 -54 119 -21 119 52 0 72 -59
104 -114 61z"/>
<path d="M4880 6258 c-25 -40 -19 -74 16 -105 32 -30 59 -29 89 2 51 50 20
135 -49 135 -30 0 -40 -6 -56 -32z"/>
<path d="M4952 5820 c-32 -30 -37 -64 -15 -102 42 -73 143 -32 129 52 -10 63
-71 90 -114 50z"/>
<path d="M6425 3998 c-49 -28 -59 -78 -24 -122 44 -56 140 -20 139 53 -1 30
-16 53 -47 69 -27 15 -42 15 -68 0z"/>
<path d="M6956 3929 c-20 -16 -26 -29 -26 -59 0 -72 84 -106 135 -55 73 72
-28 178 -109 114z"/>
<path d="M7500 3868 c-54 -58 7 -155 82 -129 90 32 73 151 -22 151 -27 0 -45
-7 -60 -22z"/>
<path d="M8006 3824 c-43 -42 -42 -90 1 -124 34 -26 66 -25 97 3 35 31 41 65
16 105 -17 27 -25 32 -59 32 -23 0 -46 -7 -55 -16z"/>
<path d="M3004 1696 c-120 -53 -227 -250 -241 -442 l-6 -84 55 0 c59 0 68 -7
68 -56 0 -22 -4 -24 -54 -24 -49 0 -54 -2 -49 -20 5 -17 14 -20 64 -20 54 0
60 -2 69 -25 16 -42 55 -94 90 -120 l33 -24 -64 -3 -64 -3 44 -13 c86 -26 187
17 260 112 131 169 159 433 67 614 -29 56 -59 86 -108 107 -46 18 -122 19
-164 1z"/>
<path d="M2096 1506 c-111 -41 -218 -249 -204 -397 3 -32 5 -34 47 -39 38 -4
46 -9 52 -32 7 -27 6 -28 -38 -28 -37 0 -44 -3 -41 -17 2 -14 15 -19 50 -21
43 -3 49 -6 72 -47 14 -24 38 -53 52 -64 l27 -21 -49 0 c-40 -1 -46 -3 -30
-12 29 -16 130 -4 165 21 40 29 95 106 120 167 30 79 45 199 32 270 -31 168
-139 261 -255 220z"/>
</g>
</svg>
