<?xml version="1.0" encoding="UTF-8" standalone="no"?>
<svg width="49px" height="49px" viewBox="0 0 49 49" version="1.1" xmlns="http://www.w3.org/2000/svg" xmlns:xlink="http://www.w3.org/1999/xlink" xmlns:sketch="http://www.bohemiancoding.com/sketch/ns">
    <title>Slice 1</title>
    <description>Created with Sketch (http://www.bohemiancoding.com/sketch)</description>
    <defs></defs>
    <g id="Page-1" stroke="none" stroke-width="1" fill="none" fill-rule="evenodd" sketch:type="MSPage">
        <g id="OUYA_Icon_Black" sketch:type="MSLayerGroup" fill="#1A1918">
            <path d="M35.444,19.704 L35.444,25.182 C35.444,31.213 30.535,36.125 24.498,36.125 C18.465,36.125 13.555,31.213 13.555,25.182 L13.555,19.704 C13.555,18.787 12.81,18.044 11.896,18.044 C10.981,18.044 10.237,18.787 10.237,19.704 L10.237,25.182 C10.237,33.042 16.636,39.442 24.498,39.442 C32.361,39.442 38.761,33.042 38.761,25.182 L38.761,19.704 C38.761,18.787 38.018,18.044 37.104,18.044 C36.188,18.044 35.444,18.787 35.444,19.704 Z" id="Fill-1" sketch:type="MSShapeGroup"></path>
            <path d="M24.498,0.002 C10.989,0.002 0,10.991 0,24.502 C0,38.01 10.989,49 24.498,49 C38.008,49 49,38.01 49,24.502 C49,10.991 38.008,0.002 24.498,0.002 M24.498,45.629 C12.848,45.629 3.373,36.149 3.373,24.502 C3.373,12.85 12.848,3.375 24.498,3.375 C36.147,3.375 45.628,12.85 45.628,24.502 C45.628,36.149 36.147,45.629 24.498,45.629" id="Fill-3" sketch:type="MSShapeGroup"></path>
        </g>
    </g>
</svg>