<?xml version="1.0" encoding="UTF-8" standalone="no"?>
<svg
   xmlns:dc="http://purl.org/dc/elements/1.1/"
   xmlns:cc="http://creativecommons.org/ns#"
   xmlns:rdf="http://www.w3.org/1999/02/22-rdf-syntax-ns#"
   xmlns:svg="http://www.w3.org/2000/svg"
   xmlns="http://www.w3.org/2000/svg"
   xmlns:sodipodi="http://sodipodi.sourceforge.net/DTD/sodipodi-0.dtd"
   xmlns:inkscape="http://www.inkscape.org/namespaces/inkscape"
   version="1.0"
   width="550.000000pt"
   height="550.000000pt"
   viewBox="0 0 550.000000 550.000000"
   preserveAspectRatio="xMidYMid meet"
   id="svg2"
   inkscape:version="0.48.4 r9939"
   sodipodi:docname="switch-logo.svg">
  <defs
     id="defs16" />
  <sodipodi:namedview
     pagecolor="#ffffff"
     bordercolor="#666666"
     borderopacity="1"
     objecttolerance="10"
     gridtolerance="10"
     guidetolerance="10"
     inkscape:pageopacity="0"
     inkscape:pageshadow="2"
     inkscape:window-width="1857"
     inkscape:window-height="1057"
     id="namedview14"
     showgrid="false"
     inkscape:zoom="0.84386766"
     inkscape:cx="437.92265"
     inkscape:cy="269.90189"
     inkscape:window-x="1975"
     inkscape:window-y="-8"
     inkscape:window-maximized="1"
     inkscape:current-layer="g6" />
  <metadata
     id="metadata4">
Created by potrace 1.13, written by Peter Selinger 2001-2015
<rdf:RDF>
  <cc:Work
     rdf:about="">
    <dc:format>image/svg+xml</dc:format>
    <dc:type
       rdf:resource="http://purl.org/dc/dcmitype/StillImage" />
  </cc:Work>
</rdf:RDF>
</metadata>
  <g
     transform="matrix(0.10631448,0,0,-0.10631448,-2.0914346,552.14823)"
     id="g6"
     style="fill:#000000;stroke:none">
    <path
       d="M 1126.3586,5172.3853 C 611.44039,5080.3399 197.15057,4699.3148 66.547592,4198.4167 19.444875,4017.5367 16.233325,3911.5775 21.585906,2508.4205 24.797455,1219.7852 25.867972,1189.8169 47.278299,1090.2794 166.1056,554.06153 547.20941,171.96614 1088.8906,45.671311 c 70.6541,-16.054427 160.5775,-19.265313 739.7268,-22.476199 599.4891,-4.281181 661.5791,-3.210885 677.6369,12.843542 16.0577,16.054429 17.1282,222.621406 17.1282,2564.427246 0,1736.0188 -3.2115,2553.7244 -10.7051,2568.7085 -10.7053,19.2653 -28.904,20.3356 -656.2265,19.2653 -509.5659,-1.0703 -662.6496,-4.2812 -730.0923,-16.0544 z m 968.8173,-2568.7085 0,-2168.41804 -435.7001,5.35148 c -401.4436,4.28118 -444.2643,6.42177 -524.553,26.75738 -344.70618,88.8345 -600.55959,354.26771 -672.28418,699.97298 -23.55135,108.0999 -23.55135,2770.9944 -1.07051,2876.9536 64.23098,300.753 272.98165,550.1317 554.52749,662.5126 141.308,56.7258 206.6095,63.1475 664.7906,64.2178 l 414.2897,1.0703 0,-2168.4181 z"
       id="path8"
       inkscape:connector-curvature="0" />
    <path
       d="m 1218.4231,4118.1446 c -67.4426,-12.8436 -170.212,-64.2178 -224.80835,-112.3811 -112.40424,-97.3968 -168.0711,-235.4648 -159.50696,-398.1498 4.28206,-84.5533 9.63465,-107.0296 43.89117,-175.5284 50.31426,-103.8186 126.32094,-179.8096 230.16084,-231.1838 71.7248,-35.3198 89.9235,-39.6008 183.0584,-42.8118 84.5708,-3.2109 114.5453,0 171.2827,19.2654 232.3019,78.1316 372.5396,303.9638 332.9304,535.1474 -46.0321,275.0659 -307.238,459.1567 -577.0082,405.6421 z"
       id="path10"
       inkscape:connector-curvature="0" />
    <path
       d="m 3044.724,5182.018 c -4.2822,-3.2109 -7.4936,-1163.4109 -7.4936,-2578.3412 0,-2334.31379 1.0704,-2570.84903 17.1281,-2577.270802 28.9041,-10.702952 859.6247,-6.421771 962.3942,4.281182 434.6297,49.233578 817.8746,313.59649 1026.6252,706.39483 26.7629,50.30387 62.09,134.85719 80.2887,187.30165 67.4426,201.21554 65.3015,147.70064 65.3015,1685.71494 0,1227.6286 -2.141,1410.6491 -17.1282,1488.7806 -105.9811,557.6238 -530.9761,978.2497 -1089.7857,1074.5763 -74.9361,12.8436 -190.5519,16.0545 -563.0916,16.0545 -256.9238,0 -471.0272,-3.2109 -474.2386,-7.492 z M 4188.0353,2850.915 c 167.0006,-43.8822 304.0267,-171.2472 359.6935,-333.9322 35.3271,-100.6077 34.2566,-248.3084 -1.0704,-340.3538 -65.3016,-169.1067 -193.7635,-287.9094 -358.6231,-331.7914 -267.629,-69.5694 -552.3864,92.0453 -630.534,357.4785 -23.5514,81.3425 -22.481,218.3402 4.282,301.8232 80.2887,262.2225 358.623,416.3449 626.252,346.7757 z"
       id="path12"
       inkscape:connector-curvature="0" />
  </g>
</svg>
