<?xml version="1.0" encoding="utf-8"?>
<!-- Generator: Adobe Illustrator 12.0.0, SVG Export Plug-In . SVG Version: 6.00 Build 51448)  -->
<!DOCTYPE svg PUBLIC "-//W3C//DTD SVG 1.1//EN" "http://www.w3.org/Graphics/SVG/1.1/DTD/svg11.dtd" [
	<!ENTITY ns_svg "http://www.w3.org/2000/svg">
	<!ENTITY ns_xlink "http://www.w3.org/1999/xlink">
]>
<svg  version="1.1" xmlns="&ns_svg;" xmlns:xlink="&ns_xlink;" width="640" height="640" viewBox="0 0 640 640"
	 overflow="visible" enable-background="new 0 0 640 640" xml:space="preserve">
<g id="txori">
	<rect fill="#FFFFFF" width="640" height="640"/>
	<path fill="#222222" d="M337.5,218C254.5,218,224,371,43,371c187-18,207.5-236,336-236c48,0,64,48.5,102,57
		c-13.75,13.75-17,20-17,50c0,74-71.5,175.5-279,92c155.5,58.5,204.5-21,204.5-60.5C389.5,234.5,362.5,218,337.5,218z"/>
	<path fill="#222222" d="M167,401c-8.477,0-5.978,0-10,0c-10,0-10-15,0-15c1.87,0,0.391,0,10,0c3,0,4-1,4-4c0-12.684,0-15,0-15
		c0-10,15-10,15,0c0,1.816,0,3.521,0,15c0,3,1,4,4,4c9.681,0,10,0.002,10,0.002c10,0,10,15,0,15c-2.655,0-2.216-0.002-10-0.002
		c-3,0-4,1-4,4c0,26.052,0,51.883,0,56c0,10-15,10-15,0c0-2.46,0-29.427,0-56C171,402,170,401,167,401z"/>
	<path fill="#222222" d="M257.686,440.077c15.024,15.024,23.046,23.047,25.102,25.103c7.071,7.071,17.678-3.535,10.607-10.606
		c0,0-9.343-9.343-25.102-25.103c-2.122-2.121-2.122-3.535,0-5.656c14.695-14.694,23.088-23.088,25.103-25.103
		c7.071-7.071-3.536-17.678-10.606-10.606c0,0-9.524,9.523-25.103,25.102c-2.122,2.122-3.536,2.122-5.657,0
		c-15.094-15.095-23.787-23.787-25.102-25.103c-7.071-7.07-17.678,3.536-10.606,10.606c2.164,2.164,10.537,10.538,25.102,25.103
		c2.121,2.122,2.121,3.536,0,5.657c-15.074,15.073-23.789,23.789-25.103,25.103c-7.071,7.07,3.535,17.677,10.606,10.606
		c2.166-2.166,10.518-10.518,25.103-25.103C254.15,437.956,255.565,437.956,257.686,440.077z"/>
	<path fill="#222222" d="M342,385.5c-22.92,0-41.5,18.58-41.5,41.5s18.58,41.5,41.5,41.5s41.5-18.58,41.5-41.5
		S364.92,385.5,342,385.5z M342,452.75c-14.222,0-25.75-11.528-25.75-25.75s11.528-25.75,25.75-25.75s25.75,11.528,25.75,25.75
		S356.222,452.75,342,452.75z"/>
	<path fill="#222222" d="M394,393.25c0,0,0,63.75,0,67.75c0,10,15,10,15,0c0-8.5,0-61.75,0-67.75C409,383,394,383,394,393.25z"/>
	<path fill="#222222" d="M394,427c0-22.92,18.268-41.5,41.188-41.5c4.351,0,7.563,3.524,7.563,7.875s-3.587,7.875-7.938,7.875
		C420.591,401.25,409,412.778,409,427"/>
	<path fill="#222222" d="M452,393.25c0,0,0,63.75,0,67.75c0,10,15,10,15,0c0-8.5,0-61.75,0-67.75C467,383,452,383,452,393.25z"/>
	<circle fill="#222222" cx="459.5" cy="368.5" r="7.5"/>
</g>
</svg>
