<?xml version="1.0" encoding="UTF-8" standalone="no"?>
<!-- Generator: Adobe Illustrator 13.0.0, SVG Export Plug-In . SVG Version: 6.00 Build 14948)  -->

<svg
   xmlns:dc="http://purl.org/dc/elements/1.1/"
   xmlns:cc="http://creativecommons.org/ns#"
   xmlns:rdf="http://www.w3.org/1999/02/22-rdf-syntax-ns#"
   xmlns:svg="http://www.w3.org/2000/svg"
   xmlns="http://www.w3.org/2000/svg"
   xmlns:sodipodi="http://sodipodi.sourceforge.net/DTD/sodipodi-0.dtd"
   xmlns:inkscape="http://www.inkscape.org/namespaces/inkscape"
   version="1.1"
   id="Layer_1"
   x="0px"
   y="0px"
   width="340px"
   height="400px"
   viewBox="0 0 340 400"
   enable-background="new 0 0 340 400"
   xml:space="preserve"
   inkscape:version="0.91 r13725"
   sodipodi:docname="android-logo.svg"><metadata
     id="metadata23"><rdf:RDF><cc:Work
         rdf:about=""><dc:format>image/svg+xml</dc:format><dc:type
           rdf:resource="http://purl.org/dc/dcmitype/StillImage" /></cc:Work></rdf:RDF></metadata><defs
     id="defs21" /><sodipodi:namedview
     pagecolor="#ffffff"
     bordercolor="#666666"
     borderopacity="1"
     objecttolerance="10"
     gridtolerance="10"
     guidetolerance="10"
     inkscape:pageopacity="0"
     inkscape:pageshadow="2"
     inkscape:window-width="1146"
     inkscape:window-height="791"
     id="namedview19"
     showgrid="false"
     inkscape:zoom="1.3350176"
     inkscape:cx="173.20561"
     inkscape:cy="210.80535"
     inkscape:window-x="2439"
     inkscape:window-y="99"
     inkscape:window-maximized="0"
     inkscape:current-layer="androd" /><g
     id="max_width__x2F__height"
     display="none"><path
       display="inline"
       d="M499.001,1v498H1V1H499.001 M500.001,0H0v500h500.001V0L500.001,0z"
       id="path4" /></g><g
     id="androd"
     transform="matrix(0.98903912,0,0,0.98903912,-76.822625,-46.684683)"><path
       style="fill:#000000"
       d="M 101.4668 1.1542969 C 100.78848 1.1264801 100.11327 1.3008831 99.533203 1.6992188 C 97.986346 2.7644139 97.693073 5.0251406 98.876953 6.7480469 L 118.82227 35.699219 C 87.110698 50.451726 64.872661 78.485714 62.039062 111.20312 L 277.96094 111.20312 C 275.13723 78.485714 252.89904 50.45368 221.18945 35.701172 L 241.12695 6.75 C 242.31083 5.0290718 242.0166 2.7693341 240.46875 1.7011719 C 238.92288 0.63894378 236.70428 1.1638125 235.5293 2.8867188 L 214.80859 32.962891 C 201.15293 27.583506 185.98873 24.585936 170.00586 24.585938 C 154.02299 24.585938 138.85585 27.580539 125.20117 32.962891 L 104.48242 2.8867188 C 103.74002 1.8111386 102.59732 1.2006581 101.4668 1.1542969 z M 124.89844 57.439453 C 131.49335 57.439453 136.83789 62.788814 136.83789 69.388672 C 136.83888 75.986552 131.49335 81.333984 124.89844 81.333984 C 118.29858 81.333984 112.95117 75.987541 112.95117 69.388672 C 112.95117 62.790792 118.29561 57.439453 124.89844 57.439453 z M 215.10352 57.439453 C 221.70535 57.439453 227.04883 62.790792 227.04883 69.388672 C 227.04883 75.986552 221.70337 81.333984 215.10352 81.333984 C 208.5086 81.333984 203.16211 75.987541 203.16211 69.388672 C 203.16211 62.788814 208.5086 57.439453 215.10352 57.439453 z "
       transform="matrix(1.0110824,0,0,1.0110824,77.674,47.202059)"
       id="path7" /><path
       d="m 126.383,297.598 c 0,13.45 -10.904,24.354 -24.355,24.354 l 0,0 c -13.45,0 -24.354,-10.904 -24.354,-24.354 l 0,-98.508 c 0,-13.45 10.904,-24.354 24.354,-24.354 l 0,0 c 13.451,0 24.355,10.904 24.355,24.354 l 0,98.508 z"
       id="path13"
       inkscape:connector-curvature="0"
       style="fill:#000000" /><path
       d="m 140.396,175.489 0,177.915 c 0,10.566 8.566,19.133 19.135,19.133 l 22.633,0 0,54.744 c 0,13.451 10.903,24.354 24.354,24.354 13.451,0 24.355,-10.903 24.355,-24.354 l 0,-54.744 37.371,0 0,54.744 c 0,13.451 10.902,24.354 24.354,24.354 13.452,0 24.354,-10.903 24.354,-24.354 l 0,-54.744 22.633,0 c 10.569,0 19.137,-8.562 19.137,-19.133 l 0,-177.915 -218.326,0 z"
       id="path15"
       inkscape:connector-curvature="0"
       style="fill:#000000" /><path
       d="m 372.734,297.598 c 0,13.45 10.903,24.354 24.354,24.354 l 0,0 c 13.45,0 24.354,-10.904 24.354,-24.354 l 0,-98.508 c 0,-13.45 -10.904,-24.354 -24.354,-24.354 l 0,0 c -13.451,0 -24.354,10.904 -24.354,24.354 l 0,98.508 z"
       id="path17"
       inkscape:connector-curvature="0"
       style="fill:#000000" /></g></svg>