<?xml version="1.0" encoding="UTF-8"?>
<!DOCTYPE svg PUBLIC "-//W3C//DTD SVG 1.0//EN" "http://www.w3.org/TR/2001/REC-SVG-20010904/DTD/svg10.dtd">
<svg width="256" height="128" version="1" xmlns="http://www.w3.org/2000/svg">
<defs>
<linearGradient id="g1" x1="100%" y1="0%" x2="0%" y2="100%">
<stop offset="5%" stop-color="#d8d9d5"/>
<stop offset="50%" stop-color="#838c8c"/>
<stop offset="95%" stop-color="#cdcecb"/>
</linearGradient>
</defs>
<path id="path4684" d="m205.40577 0c0 0 34.78247 20.84336 35.79516 44.4802 1.18361 27.62635-11.97989 43.0219-28.43486 54.44336-20.33722 14.11614-42.37591 22.58027-85.00937 25.09583-55.269404 3.26113-88.022458-19.04967-88.022458-19.04967 0 0 29.247434 23.04576 84.734448 23.03026 41.55599-0.0116 74.81429-7.78605 98.63204-27.0115 11.32595-9.1422 30.92382-22.83095 24.50792-55.21885C242.43497 19.65252 205.40577 0 205.40577 0z" fill="url(#g1)"/>
<ellipse cx="64" cy="116.1" rx="0.8" ry="0.75" fill="#061b3f"/>
<ellipse cx="81.1" cy="120.5" rx="1" ry="0.94" fill="#061b3f"/>
<ellipse cx="99.6" cy="123.3" rx="1.3" ry="1.2" fill="#061b3f"/>
<ellipse cx="119.6" cy="124.3" rx="1.6" ry="1.5" fill="#061b3f"/>
<ellipse cx="140.4" cy="123.6" rx="2" ry="1.84" fill="#061b3f"/>
<ellipse cx="161.2" cy="120.3" rx="2.5" ry="2.3" fill="#061b3f"/>
<ellipse cx="182.1" cy="114" rx="3.15" ry="2.88" fill="#061b3f"/>
<ellipse cx="202" cy="105.2" rx="3.5" ry="3.2" fill="#061b3f"/>
<ellipse cx="220.2" cy="92.5" rx="3.9" ry="3.55" fill="#061b3f"/>
<ellipse cx="235.2" cy="75.1" rx="5.06" ry="4.62" fill="#061b3f"/>
<ellipse cx="241.7" cy="54.9" rx="3.89" ry="3.55" fill="#061b3f"/>
<ellipse cx="239.5" cy="36.9" rx="2.8" ry="2.5" fill="#061b3f"/>
<ellipse cx="232.7" cy="23.8" rx="1.99" ry="1.81" fill="#061b3f"/>
<ellipse cx="225.2" cy="15.3" rx="1.32" ry="1.21" fill="#061b3f"/>
<ellipse cx="217.3" cy="8.5" rx="0.88" ry="0.81" fill="#061b3f"/>
<ellipse cx="" cy="" rx="" ry="" fill="#061b3f"/>
<path d="m184.99924 90.34904-0.14187 0c-0.0649-0.0233-0.15961-0.0405-0.28376-0.0521-0.12358-0.0117-0.26047-0.0172-0.41011-0.0172-0.179 0-0.36743 0.0261-0.56473 0.0781-0.1973 0.0521-0.3885 0.11361-0.57416 0.18455l0 3.65996-1.70583 0 0-5.47276 1.70583 0 0 0.78642c0.0782-0.0715 0.18622-0.16128 0.32477-0.2699 0.13855-0.10863 0.26546-0.19619 0.37907-0.26103 0.12415-0.0748 0.26824-0.13911 0.43284-0.19231 0.1646-0.0543 0.31977-0.0809 0.46664-0.0809 0.0554 0 0.11693 0.001 0.18565 0.005 0.0682 0.004 0.13024 0.008 0.18566 0.0144l0 1.61772zm-6.25031 4.00025c-1.0347 0-1.82832-0.24718-2.37975-0.74097-0.55199-0.49491-0.82742-1.19819-0.82742-2.11207 0-0.89393 0.25715-1.60719 0.77145-2.14034 0.51374-0.53314 1.2331-0.79972 2.15696-0.79972 0.83906 0 1.46975 0.22557 1.89316 0.67724 0.42286 0.45112 0.63456 1.09788 0.63456 1.93916l0 0.6135-3.74974 0c0.0161 0.2566 0.0698 0.47163 0.16127 0.64399 0.0915 0.17236 0.21226 0.31035 0.3619 0.41177 0.14686 0.10253 0.31811 0.17513 0.51374 0.21947 0.19619 0.0444 0.40901 0.0665 0.64066 0.0665 0.19896 0 0.3946-0.0221 0.58746-0.0671 0.19286-0.0444 0.36855-0.10363 0.52816-0.17623 0.14021-0.0626 0.26989-0.13024 0.38905-0.2034 0.11915-0.0731 0.21614-0.13744 0.2904-0.19397l0.18122 0 0 1.40879c-0.14021 0.0554-0.26768 0.10585-0.38295 0.15296-0.11527 0.0471-0.27433 0.0953-0.47551 0.14409-0.18621 0.0488-0.37741 0.087-0.5736 0.11417-0.19785 0.0288-0.43782 0.0421-0.72102 0.0421zm0.56862-3.59346c-0.01-0.36411-0.0942-0.64121-0.25272-0.83186-0.1585-0.19009-0.40124-0.28542-0.72767-0.28542-0.33419 0-0.59411 0.10032-0.78254 0.30038-0.18787 0.20007-0.29151 0.47219-0.31146 0.8169l2.07439 0zm-3.45879-2.02617-2.76769 7.48175-1.83276 0 0.82854-2.1359-2.01287-5.34585 1.79507 0 1.15385 3.43606 1.08125-3.43606 1.75461 0 0 0zm-7.53218 4.89307c-0.11639 0.0975-0.22058 0.1851-0.31258 0.26324-0.0925 0.0781-0.21669 0.15573-0.37131 0.23388-0.15241 0.0748-0.30038 0.1319-0.44447 0.17125-0.1441 0.0393-0.34527 0.0587-0.60409 0.0587-0.48215 0-0.88284-0.16238-1.20151-0.48714-0.31867-0.32477-0.47772-0.73377-0.47772-1.22757 0-0.40567 0.0809-0.73376 0.24274-0.98371 0.16183-0.24994 0.39515-0.44835 0.6994-0.5941 0.30759-0.14964 0.67447-0.25327 1.10121-0.31202 0.42673-0.0588 0.88672-0.10419 1.3783-0.13633l0-0.0294c0-0.30315-0.11084-0.51264-0.33252-0.62847-0.22168-0.11583-0.55365-0.17346-0.99646-0.17346-0.20007 0-0.4345 0.036-0.70328 0.10973-0.26824 0.0726-0.53038 0.16626-0.78531 0.27987l-0.14576 0 0-1.32067c0.16904-0.0487 0.4417-0.10585 0.81801-0.17291 0.3763-0.0671 0.75593-0.10031 1.13944-0.10031 0.94104 0 1.62714 0.15684 2.05665 0.47052 0.43006 0.31312 0.6451 0.79196 0.6451 1.43539l0 3.72314-1.70584 0 0-0.5797zm0-0.84738 0-1.13612c-0.28708 0.0293-0.51985 0.0543-0.69719 0.0754-0.17679 0.0211-0.35137 0.0621-0.52206 0.12414-0.14853 0.0515-0.2638 0.13024-0.34583 0.23554-0.082 0.1053-0.12358 0.2444-0.12358 0.42009 0 0.25549 0.0682 0.43061 0.20561 0.52594 0.13688 0.0959 0.33917 0.14354 0.6074 0.14354 0.14853 0 0.29983-0.0344 0.45445-0.10198 0.15518-0.0687 0.29595-0.16404 0.4212-0.28652zm-3.23323 1.42707-4.84042 0 0-7.25674 1.82721 0 0 5.87123 3.01377 0 0 1.38551-0.0005 0zm-9.7357-0.57969c-0.11638 0.0975-0.22057 0.1851-0.31312 0.26324-0.092 0.0781-0.21559 0.15573-0.37132 0.23388-0.1513 0.0748-0.29982 0.1319-0.44392 0.17125-0.14409 0.0393-0.34527 0.0587-0.60408 0.0587-0.48216 0-0.88285-0.16238-1.20151-0.48714-0.31867-0.32477-0.47773-0.73377-0.47773-1.22757 0-0.40567 0.0809-0.73376 0.24275-0.98371 0.16182-0.24994 0.39514-0.44835 0.6994-0.5941 0.30703-0.14964 0.67447-0.25327 1.1012-0.31202 0.42674-0.0588 0.88673-0.10419 1.37831-0.13633l0-0.0294c0-0.30315-0.11084-0.51264-0.33252-0.62847-0.22169-0.11583-0.55365-0.17346-0.99646-0.17346-0.20007 0-0.4345 0.036-0.70329 0.10973-0.26823 0.0726-0.52982 0.16626-0.7853 0.27987l-0.14576 0 0-1.32067c0.16903-0.0487 0.44115-0.10585 0.81801-0.17291 0.37685-0.0671 0.75593-0.10031 1.13944-0.10031 0.94104 0 1.62714 0.15684 2.05665 0.47052 0.43006 0.31312 0.64509 0.79196 0.64509 1.43539l0 3.72314-1.70584 0 0-0.5797 0 0zm0-0.84738 0-1.13612c-0.28763 0.0293-0.51984 0.0543-0.69663 0.0754-0.17735 0.0211-0.35192 0.0621-0.52262 0.12414-0.14852 0.0515-0.2638 0.13024-0.34582 0.23554-0.082 0.1053-0.12359 0.2444-0.12359 0.42009 0 0.25549 0.0687 0.43061 0.20561 0.52594 0.13689 0.0959 0.33918 0.14354 0.60741 0.14354 0.14853 0 0.29982-0.0344 0.45445-0.10198 0.15517-0.0687 0.29539-0.16404 0.42119-0.28652zm-3.72757-4.8249-1.80116 0 0-1.33341 1.80116 0 0 1.33341zm-0.0438 6.25197-1.70584 0 0-5.47276 1.70584 0 0 5.47276zm-2.45289 0-1.70584 0 0-0.56972c-0.11084 0.0909-0.23775 0.18843-0.38018 0.29207-0.14188 0.10419-0.26658 0.18178-0.3752 0.23387-0.13689 0.0637-0.27267 0.11195-0.40623 0.14354-0.13356 0.0322-0.29373 0.0477-0.47994 0.0477-0.62736 0-1.12393-0.25826-1.4897-0.77367-0.36578-0.51541-0.54866-1.2054-0.54866-2.06774 0-0.47717 0.0621-0.8906 0.18621-1.24141 0.12414-0.35026 0.29539-0.65507 0.51486-0.91444 0.19895-0.2372 0.44114-0.42452 0.72545-0.56252 0.2843-0.13799 0.58468-0.20671 0.90169-0.20671 0.28763 0 0.52317 0.0299 0.70772 0.0903 0.18455 0.0593 0.39958 0.15296 0.64453 0.27987l0-2.3271 1.70584 0 0 7.57597-0.0005 0zm-1.70584-1.51353 0-2.68789c-0.0848-0.0421-0.19619-0.077-0.33418-0.10419-0.138-0.0277-0.25549-0.0416-0.35414-0.0416-0.41288 0-0.72324 0.14354-0.93106 0.42896-0.20838 0.28652-0.31202 0.6861-0.31202 1.19985 0 0.53979 0.0826 0.93051 0.24828 1.17048 0.16516 0.24108 0.43284 0.36078 0.80304 0.36078 0.15019 0 0.30315-0.0293 0.45667-0.0876 0.15462-0.0576 0.29539-0.13744 0.42341-0.23886zm-5.85239 1.6604c-1.0347 0-1.82832-0.24718-2.37975-0.74097-0.55144-0.49491-0.82743-1.19819-0.82743-2.11207 0-0.89393 0.25715-1.60719 0.7709-2.14034 0.5143-0.53314 1.2331-0.79972 2.15751-0.79972 0.83907 0 1.46975 0.22557 1.89316 0.67724 0.42286 0.45112 0.63457 1.09788 0.63457 1.93916l0 0.6135-3.74975 0c0.0161 0.2566 0.0704 0.47163 0.16128 0.64399 0.0914 0.17291 0.21226 0.31035 0.36189 0.41177 0.14687 0.10253 0.31812 0.17513 0.51375 0.21947 0.19619 0.0444 0.409 0.0665 0.64066 0.0665 0.19896 0 0.39515-0.0221 0.58746-0.0671 0.1923-0.0444 0.36854-0.10363 0.52815-0.17623 0.14022-0.0626 0.2699-0.13024 0.38905-0.2034 0.11916-0.0731 0.21614-0.13744 0.29096-0.19397l0.18067 0 0 1.40879c-0.13966 0.0554-0.26713 0.10585-0.38295 0.15296-0.11583 0.0471-0.27434 0.0953-0.47607 0.14409-0.1851 0.0488-0.37685 0.087-0.5736 0.11417-0.19729 0.0288-0.43726 0.0421-0.72046 0.0421zm0.56806-3.59346c-0.01-0.36411-0.0942-0.64121-0.25272-0.83186-0.1585-0.19009-0.40124-0.28542-0.72767-0.28542-0.33363 0-0.59411 0.10032-0.78254 0.30038-0.18787 0.20007-0.29151 0.47219-0.31146 0.8169l2.07439 0zm-5.80252 3.44659 0-2.73056c0-0.26879-0.005-0.49601-0.0144-0.68112-0.009-0.1851-0.0393-0.33529-0.0881-0.45223-0.0487-0.11693-0.12525-0.20228-0.22778-0.25548-0.10308-0.0543-0.24718-0.0809-0.43339-0.0809-0.13024 0-0.25992 0.0288-0.38683 0.0848-0.12692 0.0576-0.26547 0.13744-0.41621 0.24163l0 3.87333-1.70584 0 0-2.73056c0-0.26547-0.006-0.49214-0.0172-0.6789-0.0117-0.18622-0.041-0.33751-0.0903-0.45445-0.0493-0.11694-0.12525-0.20228-0.22778-0.25549-0.10308-0.0543-0.24551-0.0809-0.4284-0.0809-0.14021 0-0.27765 0.0327-0.41122 0.0975-0.13411 0.0648-0.26491 0.14132-0.39182 0.22888l0 3.87333-1.70584 0 0-5.47276 1.70584 0 0 0.60796c0.27932-0.2372 0.54257-0.4223 0.78919-0.55531 0.24662-0.13301 0.52427-0.19951 0.83297-0.19951 0.33473 0 0.62846 0.0798 0.88173 0.23886 0.25327 0.15906 0.44669 0.39626 0.5797 0.71104 0.32809-0.30536 0.63678-0.54035 0.92829-0.70384 0.28985-0.16459 0.58524-0.24606 0.88396-0.24606 0.25327 0 0.48049 0.0405 0.68167 0.12192 0.20117 0.0815 0.37187 0.20284 0.51153 0.36522 0.1524 0.17513 0.26712 0.38351 0.34305 0.6257 0.077 0.24219 0.11472 0.55808 0.11472 0.94713l0 3.56021-1.7075 0 0 0.0005zm-8.04759 0.10364c-0.69608 0-1.20262-0.14299-1.51963-0.4284-0.317-0.28542-0.4755-0.75372-0.4755-1.40324l0-2.55821-0.64953 0 0-1.18655 0.64953 0 0-1.56729 1.70584 0 0 1.56729 1.64543 0 0 1.18655-1.64543 0 0 1.94415c0 0.19231 0.002 0.35968 0.006 0.50266 0.004 0.14354 0.0294 0.27211 0.0781 0.38573 0.0454 0.11416 0.12636 0.2045 0.24163 0.271 0.11583 0.0671 0.28431 0.10031 0.50544 0.10031 0.0909 0 0.21059-0.0194 0.35857-0.0576 0.14797-0.0388 0.25161-0.0743 0.31035-0.10641l0.14631 0 0 1.19597c-0.1851 0.0482-0.38185 0.0859-0.58967 0.11361-0.20949 0.0272-0.46442 0.0405-0.76702 0.0405zm-4.12605 0.0432c-0.45167 0-0.86566-0.0571-1.24141-0.1707-0.37575-0.11361-0.70163-0.28874-0.97762-0.52594-0.27322-0.2372-0.48604-0.5348-0.639-0.89393-0.15296-0.35801-0.22944-0.78142-0.22944-1.26857 0-0.52261 0.0826-0.96764 0.24884-1.33452 0.16626-0.36689 0.39016-0.66893 0.67336-0.90613 0.27267-0.22722 0.59411-0.39514 0.9632-0.50432 0.3691-0.10807 0.75372-0.16294 1.15386-0.16294 0.30259 0 0.60463 0.0349 0.90723 0.10419 0.30259 0.0698 0.6063 0.18067 0.91222 0.33363l0 1.45867-0.21947 0c-0.0687-0.0654-0.1524-0.13689-0.25161-0.21559-0.0992-0.0787-0.20727-0.15019-0.3242-0.21558-0.12415-0.0682-0.26381-0.12636-0.42009-0.17347-0.15629-0.0471-0.33031-0.0709-0.52206-0.0709-0.4356 0-0.77367 0.15241-1.01253 0.45722-0.23886 0.30481-0.35857 0.71437-0.35857 1.22978 0 0.55088 0.12747 0.96154 0.38295 1.23255 0.25549 0.271 0.59466 0.40568 1.01752 0.40568 0.21448 0 0.40346-0.0244 0.56584-0.0743 0.16294-0.0493 0.3026-0.10807 0.42009-0.17734 0.11361-0.0693 0.21115-0.14077 0.29262-0.21503 0.0809-0.0743 0.1513-0.14133 0.21004-0.20007l0.21947 0 0 1.46365c-0.0975 0.0421-0.2106 0.0909-0.33917 0.14631-0.12803 0.056-0.25937 0.10142-0.39238 0.13689-0.16626 0.0454-0.32144 0.0804-0.46609 0.10474-0.1452 0.0239-0.33584 0.0361-0.5736 0.0361zm-5.25884 0c-1.03525 0-1.82832-0.24718-2.3803-0.74097-0.55144-0.49491-0.82743-1.19819-0.82743-2.11207 0-0.89393 0.2566-1.60719 0.7709-2.14034 0.51375-0.53314 1.2331-0.79972 2.15696-0.79972 0.83962 0 1.4703 0.22557 1.89316 0.67724 0.42341 0.45112 0.63456 1.09788 0.63456 1.93916l0 0.6135-3.74974 0c0.0161 0.2566 0.0698 0.47163 0.16183 0.64399 0.0909 0.17291 0.2117 0.31035 0.36189 0.41177 0.14687 0.10253 0.31756 0.17513 0.51375 0.21947 0.19563 0.0444 0.409 0.0665 0.64066 0.0665 0.1984 0 0.39459-0.0221 0.5869-0.0671 0.19231-0.0444 0.36855-0.10363 0.52871-0.17623 0.14022-0.0626 0.26935-0.13024 0.3885-0.2034 0.11915-0.0731 0.21614-0.13744 0.29096-0.19397l0.18122 0 0 1.40879c-0.13966 0.0554-0.26768 0.10585-0.38295 0.15296-0.11528 0.0471-0.27434 0.0953-0.47607 0.14409-0.18565 0.0488-0.37685 0.087-0.5736 0.11417-0.19729 0.0288-0.43726 0.0421-0.71991 0.0421zm0.56751-3.59346c-0.01-0.36411-0.0937-0.64121-0.25272-0.83186-0.1585-0.19009-0.4018-0.28542-0.72822-0.28542-0.33363 0-0.59411 0.10032-0.78198 0.30038-0.18843 0.20007-0.29207 0.47219-0.31147 0.8169l2.07439 0zm-3.47652-0.40679-0.14188 0c-0.0648-0.0233-0.15961-0.0405-0.28375-0.0521-0.12359-0.0117-0.26048-0.0172-0.41011-0.0172-0.17901 0-0.36744 0.0261-0.56474 0.0781-0.19729 0.0521-0.38849 0.11361-0.57415 0.18455l0 3.65996-1.70584 0 0-5.47276 1.70584 0 0 0.78642c0.0781-0.0715 0.18621-0.16128 0.32476-0.2699 0.13855-0.10863 0.26491-0.19619 0.37852-0.26103 0.12415-0.0748 0.26824-0.13911 0.43284-0.19231 0.1646-0.0543 0.32033-0.0809 0.46664-0.0809 0.0554 0 0.11693 0.001 0.18565 0.005 0.0682 0.004 0.13024 0.008 0.18566 0.0144l0 1.61772 0.0005 0zm-4.39539-2.39859-1.80117 0 0-1.33341 1.80117 0 0 1.33341zm-0.0433 6.25197-1.70584 0 0-5.47276 1.70584 0 0 5.47276zm-2.13694-3.62116c0 0.67612-0.14797 1.28131-0.44336 1.81557-0.29539 0.53425-0.66893 0.94436-1.12005 1.23033-0.37686 0.24385-0.78641 0.40069-1.22978 0.47107-0.44336 0.0693-0.91499 0.10419-1.41488 0.10419l-2.26946 0 0-7.25674 2.25006 0c0.50932 0 0.98649 0.0327 1.43151 0.0975 0.44503 0.0648 0.86234 0.22223 1.25195 0.47273 0.47717 0.30592 0.85403 0.7177 1.13002 1.23532 0.27599 0.51819 0.41399 1.12836 0.41399 1.82999zm-1.87931-0.0205c0-0.47717-0.0815-0.88562-0.2444-1.22424-0.16294-0.33917-0.41454-0.60464-0.75316-0.79639-0.24552-0.13634-0.50322-0.21115-0.77256-0.2239-0.2699-0.0128-0.59189-0.0194-0.96653-0.0194l-0.0338 0 0 4.53782 0.0338 0c0.40678 0 0.75039-0.007 1.02915-0.0221 0.27932-0.0139 0.54478-0.10142 0.79695-0.26048 0.29705-0.18788 0.52261-0.4478 0.67834-0.77866 0.15463-0.33197 0.23221-0.73543 0.23221-1.21259zm-9.647584 3.78853c-1.03525 0-1.82831-0.24718-2.3803-0.74097-0.55143-0.49491-0.82743-1.19819-0.82743-2.11207 0-0.89393 0.2566-1.60719 0.7709-2.14034 0.51375-0.53314 1.2331-0.79972 2.15696-0.79972 0.83962 0 1.4703 0.22557 1.89316 0.67724 0.42341 0.45112 0.634564 1.09788 0.634564 1.93916l0 0.6135-3.749744 0c0.0161 0.2566 0.0698 0.47163 0.16183 0.64399 0.0909 0.17291 0.21171 0.31035 0.36189 0.41177 0.14687 0.10253 0.31756 0.17513 0.51375 0.21947 0.19564 0.0444 0.409 0.0665 0.64066 0.0665 0.19841 0 0.39459-0.0221 0.5869-0.0671 0.19231-0.0444 0.36855-0.10363 0.52871-0.17623 0.14022-0.0626 0.26935-0.13024 0.3885-0.2034 0.11915-0.0731 0.21614-0.13744 0.29096-0.19397l0.181224 0 0 1.40879c-0.139664 0.0554-0.267684 0.10585-0.382954 0.15296-0.11528 0.0471-0.27433 0.0953-0.47606 0.14409-0.18566 0.0488-0.37686 0.087-0.5736 0.11417-0.1973 0.0288-0.43727 0.0421-0.71992 0.0421zm0.56751-3.59346c-0.01-0.36411-0.0937-0.64121-0.25272-0.83186-0.1585-0.19009-0.4018-0.28542-0.72822-0.28542-0.33363 0-0.59411 0.10032-0.78198 0.30038-0.18843 0.20007-0.29207 0.47219-0.31147 0.8169l2.07439 0zm-4.13492 3.44659-1.70583 0 0-7.57707 1.70583 0 0 7.57707zm-2.05498-2.81147c0 0.87287-0.22279 1.57726-0.66893 2.11262-0.44613 0.53536-0.99535 0.80304-1.64875 0.80304-0.27489 0-0.5132-0.031-0.71603-0.0925-0.20284-0.0615-0.41787-0.15684-0.64676-0.28708l0 2.28443-1.70584 0 0-7.48175 1.70584 0 0 0.57305c0.25161-0.21448 0.5082-0.38739 0.76923-0.5204 0.26103-0.13301 0.56363-0.19951 0.90668-0.19951 0.63678 0 1.13058 0.25161 1.47973 0.75427 0.34914 0.50266 0.52483 1.18766 0.52483 2.05388zm-1.74907 0.0365c0-0.52926-0.0826-0.91388-0.24828-1.15274-0.16571-0.23942-0.42342-0.35857-0.77367-0.35857-0.15407 0-0.30703 0.0244-0.45944 0.0726-0.15185 0.0487-0.30204 0.12137-0.44946 0.21835l0 2.73722c0.092 0.0388 0.19231 0.066 0.30204 0.082 0.10974 0.0161 0.23997 0.0244 0.39072 0.0244 0.41898 0 0.73044-0.13467 0.93383-0.40402 0.20284-0.27045 0.30426-0.67613 0.30426-1.21925zm-6.06299 2.77497 0-2.73056c0-0.26879-0.005-0.49601-0.0144-0.68112-0.009-0.1851-0.0393-0.33529-0.0881-0.45223-0.0487-0.11693-0.12525-0.20228-0.22778-0.25548-0.10308-0.0543-0.24718-0.0809-0.43339-0.0809-0.13024 0-0.25937 0.0288-0.38683 0.0848-0.12691 0.0576-0.26602 0.13744-0.41621 0.24163l0 3.87333-1.70584 0 0-2.73056c0-0.26547-0.006-0.49214-0.0172-0.6789-0.0117-0.18622-0.0416-0.33751-0.0903-0.45445-0.0487-0.11694-0.12525-0.20228-0.22778-0.25549-0.10308-0.0543-0.24551-0.0809-0.4284-0.0809-0.14021 0-0.27766 0.0327-0.41122 0.0975-0.13412 0.0648-0.26491 0.14132-0.39182 0.22888l0 3.87333-1.70584 0 0-5.47276 1.70584 0 0 0.60796c0.27932-0.2372 0.54256-0.4223 0.78918-0.55531 0.24662-0.13301 0.52428-0.19951 0.83297-0.19951 0.33474 0 0.62847 0.0798 0.88174 0.23886 0.25327 0.15906 0.44669 0.39626 0.5797 0.71104 0.32809-0.30536 0.63733-0.54035 0.92773-0.70384 0.29041-0.16459 0.58524-0.24606 0.88396-0.24606 0.25327 0 0.48049 0.0405 0.68167 0.12192 0.20118 0.0815 0.37187 0.20284 0.51153 0.36522 0.15241 0.17513 0.26713 0.38351 0.34361 0.6257 0.0765 0.24219 0.11472 0.55808 0.11472 0.94713l0 3.56021-1.70751 0 0 0.0005zm-7.26062-6.25197-1.80117 0 0-1.33341 1.80117 0 0 1.33341zm-0.0433 6.25197-1.70584 0 0-5.47276 1.70584 0 0 5.47276zm-5.13851 0.12969c-0.55531 0-1.04357-0.0538-1.46421-0.16072-0.42064-0.10696-0.81135-0.24053-1.17214-0.40014l0-1.72523 0.16571 0c0.36356 0.30924 0.7648 0.54644 1.20373 0.71215 0.43838 0.16626 0.864 0.24884 1.27689 0.24884 0.10419 0 0.24163-0.0117 0.41177-0.0343 0.17014-0.0227 0.30758-0.0582 0.41177-0.10697 0.12692-0.0554 0.23388-0.1319 0.32144-0.23165 0.0876-0.0987 0.13135-0.22944 0.13135-0.39183 0-0.18177-0.0715-0.32975-0.21448-0.44336-0.14298-0.11361-0.31368-0.19619-0.51208-0.24828-0.24662-0.0648-0.51098-0.12691-0.79196-0.18511-0.28098-0.0582-0.54312-0.12968-0.78697-0.21447-0.56196-0.19785-0.96487-0.46443-1.20872-0.79861-0.24329-0.33474-0.36522-0.75372-0.36522-1.25749 0-0.6789 0.28763-1.22811 0.8629-1.64876 0.57526-0.42064 1.29351-0.63123 2.15529-0.63123 0.43228 0 0.86235 0.0438 1.28964 0.13134 0.42729 0.087 0.81024 0.20561 1.14831 0.35469l0 1.65264-0.16072 0c-0.2699-0.22778-0.5991-0.42064-0.98759-0.57804-0.3885-0.15739-0.78753-0.23609-1.19708-0.23609-0.15961 0-0.30204 0.0117-0.42896 0.0344-0.12691 0.0227-0.25992 0.0659-0.39958 0.13024-0.11416 0.0515-0.21226 0.12802-0.29483 0.23-0.0831 0.10197-0.1247 0.21558-0.1247 0.34083 0 0.18511 0.066 0.33252 0.1973 0.44115 0.13134 0.10862 0.38572 0.20672 0.76258 0.29428 0.2433 0.056 0.47828 0.10862 0.70439 0.16072 0.22612 0.0521 0.4672 0.12359 0.72379 0.21448 0.50378 0.18178 0.87786 0.42673 1.12338 0.73321 0.24551 0.30647 0.36799 0.71215 0.36799 1.21537 0 0.72102-0.28376 1.30071-0.85015 1.73909-0.56806 0.44004-1.33397 0.65895-2.29884 0.65895z" fill="#04142e"/>
<path d="m189.61521 81.38757-48.97832 0 0-73.36273 18.42783 0 0 59.36908 30.55049 0 0 13.99365 0 0zM33.810222 82.7038c-5.622396 0-10.562568-0.54145-14.819408-1.62271-4.258502-1.08236-8.211083-2.42685-11.859961-4.03405l0-17.41197 1.676466 0c3.681576 3.1185 7.741673 5.51488 12.179737 7.18858 4.438064 1.67369 8.743674 2.50999 12.920156 2.50999 1.05077 0 2.439605-0.11472 4.1665-0.34527 1.72524-0.23055 3.114075-0.593 4.166505-1.0879 1.281875-0.55975 2.367005-1.34229 3.25484-2.3465 0.887835-1.00422 1.331195-2.33154 1.331195-3.97919 0-1.83774-0.72434-3.33187-2.17137-4.48129-1.448135-1.14942-3.17503-1.98627-5.181805-2.5122C36.972512 53.92511 34.300142 53.30052 31.454302 52.70974 28.608467 52.11896 25.952168 51.39683 23.485407 50.5428 17.793734 48.54046 13.71424 45.84703 11.247479 42.46583 8.779609 39.08408 7.546506 34.84775 7.546506 29.75794c0-6.8627 2.910678-12.41971 8.733143-16.67156 5.822465-4.25185 13.091402-6.37778 21.808473-6.37778 4.37544 0 8.725385 0.44392 13.050945 1.33009 4.325561 0.88784 8.198341 2.08714 11.619989 3.59789l0 16.75469-1.62825 0c-2.731113-2.32821-6.062434-4.29618-9.993954-5.90227-3.93152-1.60608-7.970005-2.41078-12.11434-2.41078-1.612735 0-3.05976 0.11472-4.34274 0.34416-1.28354 0.22944-2.63247 0.67114-4.046245 1.3251-1.151635 0.52372-2.147539 1.30238-2.986604 2.33264-0.839064 1.03138-1.258042 2.18523-1.258042 3.46156 0 1.87265 0.665598 3.35792 1.997904 4.45746 1.332306 1.09954 3.906582 2.09323 7.723387 2.97996 2.46676 0.55863 4.84374 1.09954 7.12983 1.62492 2.28609 0.52594 4.72902 1.24807 7.328235 2.16694 5.098121 1.83885 8.889986 4.31004 11.373929 7.41248 2.48283 3.10354 3.72591 7.1991 3.72591 12.28891 0 7.28889-2.86967 13.1507-8.606233 17.58322-5.736561 4.43253-13.488211 6.64823-23.251621 6.64823zm35.816394-74.6834 0 73.36274 22.9475 0c5.05267 0 9.808994-0.35095 14.288064-1.05646 4.47908-0.7055 8.62813-2.28193 12.43495-4.74537 4.5611-2.89017 8.33994-7.04878 11.32654-12.45226 2.9855-5.40349 4.46827-11.52578 4.46827-18.358 0-7.09437-1.38454-13.25767-4.17385-18.49656-2.7893-5.23889-6.60721-9.39999-11.43045-12.4869C115.55002 11.25931 111.34001 9.66487 106.84487 9.00758 102.34861 8.35085 97.517616 8.0204 92.366286 8.0204l-22.73967 0zm18.42727 13.71655 0.34638 0c3.80128 0 7.08259 0.077 9.8198 0.20783 2.737214 0.1319 5.336434 0.87259 7.828134 2.25145 3.44216 1.93971 5.99898 4.6373 7.65494 8.07059 1.65485 3.43329 2.4766 7.55422 2.4766 12.38299 0 4.82989-0.78143 8.92781-2.35537 12.27908-1.57394 3.35127-3.86017 5.97474-6.87559 7.88009-2.5571 1.61051-5.25205 2.48505-8.087914 2.63247-2.83642 0.14797-6.33012 0.22514-10.4606 0.22514l-0.34638 0 0-45.92964z" fill="#061b3f"/>
</svg>