<?xml version="1.0" encoding="UTF-8" standalone="no"?>
<!-- Generator: Adobe Illustrator 16.0.0, SVG Export Plug-In . SVG Version: 6.00 Build 0)  -->

<svg
   xmlns:dc="http://purl.org/dc/elements/1.1/"
   xmlns:cc="http://creativecommons.org/ns#"
   xmlns:rdf="http://www.w3.org/1999/02/22-rdf-syntax-ns#"
   xmlns:svg="http://www.w3.org/2000/svg"
   xmlns="http://www.w3.org/2000/svg"
   xmlns:sodipodi="http://sodipodi.sourceforge.net/DTD/sodipodi-0.dtd"
   xmlns:inkscape="http://www.inkscape.org/namespaces/inkscape"
   version="1.1"
   id="Layer_1"
   x="0px"
   y="0px"
   width="106"
   height="40"
   viewBox="0 0 106 40"
   enable-background="new 0 0 612 792"
   xml:space="preserve"
   inkscape:version="0.48.2 r9819"
   sodipodi:docname="openfl-text-logo.svg"><metadata
   id="metadata3067"><rdf:RDF><cc:Work
       rdf:about=""><dc:format>image/svg+xml</dc:format><dc:type
         rdf:resource="http://purl.org/dc/dcmitype/StillImage" /></cc:Work></rdf:RDF></metadata><defs
   id="defs3065" /><sodipodi:namedview
   pagecolor="#ffffff"
   bordercolor="#666666"
   borderopacity="1"
   objecttolerance="10"
   gridtolerance="10"
   guidetolerance="10"
   inkscape:pageopacity="0"
   inkscape:pageshadow="2"
   inkscape:window-width="1153"
   inkscape:window-height="675"
   id="namedview3063"
   showgrid="false"
   inkscape:zoom="2.3246974"
   inkscape:cx="22.164158"
   inkscape:cy="26.272812"
   inkscape:window-x="0"
   inkscape:window-y="0"
   inkscape:window-maximized="0"
   inkscape:current-layer="Layer_1" />
<path
   d="M 106,35.12195 C 106,37.81659 103.82359,40 101.13761,40 H 4.86239 C 2.17738,40 0,37.81659 0,35.12195 V 4.87805 C 0,2.18439 2.17738,0 4.86239,0 h 96.27522 C 103.82359,0 106,2.18439 106,4.87805 v 30.2439 z"
   id="path3047"
   inkscape:connector-curvature="0"
   style="fill:#1aa3aa" />
<g
   id="g3049"
   transform="matrix(1.0091743,0,0,1.0091743,-256.1999,-381.83486)">
	<path
   d="m 285.595,407.591 h -0.467 v -16.115 h 0.467 v 3.36 h 0.045 c 0.611,-2.1 2.354,-3.643 4.81,-3.643 3.165,0 5.107,2.639 5.107,6.253 0,3.354 -1.802,6.298 -5.107,6.298 -2.547,0 -4.248,-1.473 -4.81,-3.643 h -0.045 v 7.49 l 0,0 z m 9.492,-10.145 c 0,-3.076 -1.543,-5.785 -4.638,-5.785 -3.079,0 -4.854,2.682 -4.854,5.785 0,3.707 1.935,5.832 4.854,5.832 3.281,0 4.638,-3.061 4.638,-5.832 l 0,0 z"
   id="path3051"
   inkscape:connector-curvature="0"
   style="fill:#ffffff" />
	<path
   d="m 297.418,397.562 c 0.044,3.221 1.334,5.717 4.735,5.717 2.471,0 4.288,-1.376 4.687,-3.968 h 0.465 c -0.323,2.751 -2.383,4.434 -5.107,4.434 -3.702,0.045 -5.245,-2.708 -5.245,-6.278 0,-3.988 2.537,-6.272 5.245,-6.272 3.731,0 5.39,3.079 5.248,6.368 h -10.028 l 0,-10e-4 z m 9.563,-0.467 c 0.024,-2.938 -1.634,-5.434 -4.739,-5.434 -2.584,0 -4.658,2.074 -4.824,5.434 h 9.563 l 0,0 z"
   id="path3053"
   inkscape:connector-curvature="0"
   style="fill:#ffffff" />
	<path
   d="m 309.311,391.476 h 0.468 v 2.965 h 0.048 c 0.443,-1.845 1.959,-3.247 4.316,-3.247 2.49,0 4.26,1.543 4.26,4.313 v 7.956 h -0.463 v -7.886 c 0,-2.77 -1.773,-3.916 -3.797,-3.916 -2.874,0 -4.364,2.355 -4.364,5.017 v 6.785 h -0.468 v -11.987 l 0,0 z"
   id="path3055"
   inkscape:connector-curvature="0"
   style="fill:#ffffff" />
	<polygon
   points="329.75,394.692 324.266,394.692 324.266,396.158 328.975,396.158 328.975,398.967 324.266,398.967 324.266,403.463 320.63,403.463 320.63,391.668 329.75,391.668 "
   id="polygon3057"
   style="fill:#e21a37" />
	<polygon
   points="331.033,391.668 334.671,391.668 334.671,400.439 339.889,400.439 339.889,403.463 331.033,403.463 "
   id="polygon3059"
   style="fill:#e21a37" />
	<path
   d="m 278.297,391.193 c 3.501,0 5.391,3.008 5.391,6.272 0,3.289 -1.89,6.278 -5.408,6.278 -3.504,0 -5.391,-2.989 -5.391,-6.278 0,-3.264 1.886,-6.272 5.408,-6.272 l 0,0 z m 0,12.085 c 3.193,0 4.921,-2.778 4.921,-5.813 0,-2.981 -1.728,-5.805 -4.921,-5.805 -3.237,0 -4.94,2.823 -4.94,5.805 -0.001,3.035 1.703,5.813 4.94,5.813 l 0,0 z"
   id="path3061"
   inkscape:connector-curvature="0"
   style="fill:#ffffff" />
</g>
</svg>