<?xml version="1.0" encoding="UTF-8"?>
<svg id="a" data-name="Layer 1" xmlns="http://www.w3.org/2000/svg" viewBox="0 0 126.78 24.49">
  <defs>
    <style>
      .b {
        fill: #45b649;
      }

      .b, .c, .d, .e, .f, .g {
        stroke-width: 0px;
      }

      .c {
        fill: #4958a7;
      }

      .d {
        fill: #35c6f4;
      }

      .e {
        fill: #fff;
      }

      .f {
        fill: #ffcd34;
      }

      .g {
        fill: #ee3a68;
      }
    </style>
  </defs>
  <path class="b" d="m3,3h18v18H3V3Z"/>
  <path class="f" d="m0,0h6l6,3L3,12,0,6V0Z"/>
  <path class="g" d="m12,3l6-3h6v6l-3,6L12,3Z"/>
  <path class="c" d="m3,12l9,9-6,3H0v-6l3-6Z"/>
  <path class="d" d="m21,12l3,6v6h-6l-6-3,9-9Z"/>
  <g>
    <path class="e" d="m41.35,5.82h1.43v14.55h-1.43v-6.99h-7.9v6.99h-1.43V5.82h1.43v6.32h7.9v-6.32Z"/>
    <path class="e" d="m49.9,9.26c.71,0,1.32.1,1.82.3.5.2.9.48,1.21.84.31.36.53.78.67,1.27.14.49.21,1.02.21,1.6v6.85c-.14.04-.34.09-.61.14-.27.05-.57.1-.92.16s-.74.1-1.17.14c-.43.04-.87.05-1.31.05-.57,0-1.1-.06-1.59-.19-.48-.13-.9-.33-1.26-.6-.36-.27-.64-.62-.84-1.05-.2-.43-.3-.95-.3-1.56s.11-1.09.34-1.51.54-.77.95-1.04c.41-.27.89-.47,1.45-.6.56-.12,1.17-.19,1.83-.19.2,0,.4.01.62.03.22.02.43.05.63.08.2.04.38.07.52.1.15.04.25.07.3.1v-.67c0-.38-.03-.75-.08-1.1-.06-.36-.18-.68-.37-.97-.19-.29-.46-.52-.8-.69-.34-.17-.79-.26-1.35-.26-.8,0-1.39.06-1.79.17-.39.11-.68.2-.86.27l-.19-1.2c.24-.11.61-.22,1.1-.31.5-.1,1.09-.15,1.79-.15Zm.13,10.12c.53,0,1-.02,1.4-.05.4-.03.74-.08,1.02-.14v-3.82c-.15-.07-.4-.14-.73-.22-.34-.08-.8-.12-1.39-.12-.34,0-.69.02-1.05.07s-.7.15-1.01.32c-.31.16-.56.38-.76.66-.2.28-.29.65-.29,1.11,0,.41.07.75.2,1.03.13.28.32.5.57.67.24.17.54.29.88.37.34.08.73.12,1.17.12Z"/>
    <path class="e" d="m60.81,15.78c-.31.37-.61.75-.92,1.15-.31.4-.6.8-.89,1.19-.29.39-.55.79-.78,1.19-.24.4-.44.75-.6,1.06h-1.42c.58-1.07,1.21-2.06,1.86-2.97.66-.91,1.33-1.79,2.02-2.67l-3.67-5.22h1.6l2.84,4.11,2.83-4.11h1.49l-3.59,5.17c.3.38.63.8.98,1.24.35.45.7.92,1.04,1.4s.69.98,1.01,1.5.62,1.03.9,1.55h-1.47c-.17-.31-.37-.65-.61-1.02-.24-.37-.5-.76-.79-1.16-.29-.4-.59-.81-.91-1.23-.32-.42-.62-.81-.92-1.19Z"/>
    <path class="e" d="m67.16,14.93c0-.95.14-1.78.41-2.49.27-.71.63-1.3,1.07-1.77.44-.48.95-.83,1.51-1.06.57-.23,1.15-.35,1.75-.35,1.33,0,2.39.43,3.18,1.3.79.87,1.19,2.2,1.19,4.01,0,.11,0,.22-.01.34,0,.11-.02.22-.03.31h-7.62c.04,1.33.37,2.35.99,3.07s1.6,1.07,2.94,1.07c.74,0,1.33-.07,1.76-.21.43-.14.75-.26.95-.36l.25,1.18c-.2.11-.56.25-1.1.4s-1.17.23-1.9.23c-.95,0-1.76-.14-2.44-.42-.67-.28-1.23-.67-1.66-1.18-.43-.5-.75-1.1-.95-1.8-.2-.69-.29-1.45-.29-2.28Zm7.71-.86c-.03-1.13-.29-2.02-.8-2.65-.5-.63-1.22-.95-2.14-.95-.49,0-.93.1-1.31.29-.38.2-.72.46-1.01.79-.29.33-.51.71-.67,1.14s-.26.89-.28,1.37h6.22Z"/>
    <path class="e" d="m79.53,20.37V5.82h8.29v1.24h-6.87v5.12h6.09v1.24h-6.09v6.95h-1.43Z"/>
    <path class="e" d="m93.24,20.56c-.46-.01-.87-.07-1.21-.18s-.63-.27-.86-.48c-.23-.22-.41-.5-.52-.84s-.18-.77-.18-1.29V4.33l1.37-.25v13.65c0,.34.03.61.09.81.06.2.16.36.28.48s.29.21.49.26.44.1.72.15l-.19,1.13Z"/>
    <path class="e" d="m97.65,6.24c0,.32-.1.58-.29.77s-.43.28-.71.28-.52-.09-.71-.28-.29-.44-.29-.77.1-.58.29-.77.43-.28.71-.28.52.09.71.28.29.44.29.77Zm-.31,14.13h-1.37v-10.86h1.37v10.86Z"/>
    <path class="e" d="m104.46,15.78c-.31.37-.61.75-.92,1.15-.31.4-.6.8-.89,1.19-.29.39-.55.79-.78,1.19-.24.4-.44.75-.6,1.06h-1.42c.58-1.07,1.21-2.06,1.86-2.97.66-.91,1.33-1.79,2.02-2.67l-3.67-5.22h1.6l2.84,4.11,2.83-4.11h1.49l-3.59,5.17c.3.38.63.8.98,1.24.35.45.7.92,1.04,1.4s.69.98,1.01,1.5.62,1.03.9,1.55h-1.47c-.17-.31-.37-.65-.61-1.02-.24-.37-.5-.76-.79-1.16-.29-.4-.59-.81-.91-1.23-.32-.42-.62-.81-.92-1.19Z"/>
    <path class="e" d="m110.82,14.93c0-.95.14-1.78.41-2.49.27-.71.63-1.3,1.07-1.77.44-.48.94-.83,1.51-1.06.57-.23,1.15-.35,1.75-.35,1.33,0,2.39.43,3.18,1.3.79.87,1.19,2.2,1.19,4.01,0,.11,0,.22-.01.34,0,.11-.02.22-.03.31h-7.62c.04,1.33.37,2.35.99,3.07s1.6,1.07,2.94,1.07c.74,0,1.33-.07,1.76-.21.43-.14.75-.26.95-.36l.25,1.18c-.2.11-.56.25-1.1.4-.54.15-1.17.23-1.9.23-.95,0-1.76-.14-2.44-.42-.67-.28-1.23-.67-1.66-1.18-.43-.5-.75-1.1-.94-1.8-.2-.69-.29-1.45-.29-2.28Zm7.71-.86c-.03-1.13-.29-2.02-.8-2.65-.5-.63-1.22-.95-2.14-.95-.49,0-.93.1-1.31.29-.39.2-.72.46-1.01.79-.29.33-.51.71-.67,1.14-.16.43-.26.89-.28,1.37h6.22Z"/>
    <path class="e" d="m125.85,20.56c-.46-.01-.86-.07-1.21-.18-.34-.11-.63-.27-.86-.48-.23-.22-.41-.5-.53-.84s-.18-.77-.18-1.29V4.33l1.36-.25v13.65c0,.34.03.61.09.81.06.2.16.36.28.48s.29.21.49.26c.2.06.44.1.72.15l-.19,1.13Z"/>
  </g>
</svg>