<?xml version="1.0" encoding="UTF-8"?>
<!DOCTYPE svg PUBLIC "-//W3C//DTD SVG 1.0//EN" "http://www.w3.org/TR/2001/REC-SVG-20010904/DTD/svg10.dtd">
<svg width="128" height="48" version="1" xmlns="http://www.w3.org/2000/svg">
<path d="M 128,42.14634 C 128,45.379908 125.37189,48 122.12844,48 H 5.8715654 C 2.6292891,48 0,45.379908 0,42.14634 V 5.85366 C 0,2.621268 2.6292891,0 5.8715654,0 H 122.12844 C 125.37189,0 128,2.621268 128,5.85366 v 36.29268 z" fill="#00b6b2" />
<path d="m 16.00604,12.117871 0,0.841209 c 4.554157,0.895414 6.990974,5.348988 6.990974,10.040223 0,4.763797 -2.436817,9.171489 -6.990974,10.053791 l 0,0.82764 c 5.100281,-0.891325 7.823882,-5.669742 7.823882,-10.881431 0,-5.184267 -2.737039,-9.995969 -7.823882,-10.881432 z m -3.522794,0.01355 c -5.0650806,0.922007 -7.7692666,5.710987 -7.7692666,10.867863 0,5.206389 2.7094751,9.983113 7.7692666,10.881432 l 0,-0.841209 C 7.9258871,32.124102 5.5468887,27.737256 5.5468887,22.999282 c 0,-4.665806 2.3789984,-9.097736 6.9363573,-10.026656 l 0,-0.841207 z m 56.692639,0.333227 h 0.825372 v 5.207891 h 0.08215 c 0.784301,-3.239356 3.46665,-5.699808 7.63458,-5.699808 4.415674,0 7.551999,2.706627 7.551999,7.586285 V 33.541949 H 84.444607 V 19.681883 c 0,-4.879657 -3.136325,-6.889005 -6.726627,-6.889005 -5.075447,0 -7.716723,4.141565 -7.716723,8.816294 V 33.541949 H 69.175885 V 12.464645 l 0,0 z M 48.126939,23.167415 c 0.08258,5.658561 2.352463,10.046301 8.377371,10.046301 4.374602,0 7.593507,-2.419204 8.294789,-6.970628 h 0.825372 c -0.578066,4.838411 -4.20944,7.791214 -9.037581,7.791214 -6.561465,0.08206 -9.284886,-4.757222 -9.284886,-11.03057 0,-7.012309 4.497818,-11.031003 9.284886,-11.031003 6.602975,0 9.532629,5.412821 9.285323,11.194686 H 48.126939 l 0,0 z m 16.919466,-0.82015 c 0.04195,-5.166645 -2.888583,-9.554385 -8.376497,-9.554385 -4.581271,0 -8.253717,3.649648 -8.542969,9.554385 h 16.919466 l 0,0 z M 27.202957,40.8 H 26.377585 V 12.464645 h 0.825372 v 5.905171 h 0.08214 c 1.073114,-3.690461 4.168368,-6.397088 8.501023,-6.397088 5.612441,0 9.038018,4.633482 9.038018,10.989322 0,5.905606 -3.177835,11.07225 -9.038018,11.07225 -4.497817,0 -7.510052,-2.583757 -8.501023,-6.397521 h -0.08214 V 40.8 l 0,0 z M 43.99877,22.96205 c 0,-5.412385 -2.723858,-10.169172 -8.212646,-10.169172 -5.446842,0 -8.583167,4.715975 -8.583167,10.169172 0,6.520392 3.42514,10.251665 8.583167,10.251665 5.819111,0 8.212646,-5.371573 8.212646,-10.251665 l 0,0 z" fill="#ffffff" />
<path d="m 114.04962,28.226842 c 3.0788,0 6.1576,0 9.2364,0 0,1.77171 0,3.543421 0,5.315131 -5.22211,0 -10.44423,0 -15.66634,0 0,-6.91245 0,-13.824899 0,-20.737349 2.14331,0 4.28663,0 6.42994,0 0,5.140739 0,10.281479 0,15.422218 z m -8.70725,-10.107087 c -3.23478,0 -6.46956,0 -9.704341,0 0,0.861687 0,1.723373 0,2.585059 2.776873,0 5.553741,0 8.330621,0 0,1.645802 0,3.291602 0,4.937403 -2.77688,0 -5.553748,0 -8.330621,0 0,2.633252 0,5.266503 0,7.899756 -2.143171,0 -4.28634,0 -6.429511,0 0,-6.91245 0,-13.824899 0,-20.737349 5.377952,0 10.755903,0 16.133852,0 0,1.77171 0,3.543421 0,5.315131 z" fill="#e31937"/>
</svg>
