<?xml version="1.0" encoding="UTF-8" standalone="no"?>
<!-- Generator: Adobe Illustrator 17.0.0, SVG Export Plug-In . SVG Version: 6.00 Build 0)  -->

<svg
   xmlns:ns="http://ns.adobe.com/SaveForWeb/1.0/"
   xmlns:dc="http://purl.org/dc/elements/1.1/"
   xmlns:cc="http://creativecommons.org/ns#"
   xmlns:rdf="http://www.w3.org/1999/02/22-rdf-syntax-ns#"
   xmlns:svg="http://www.w3.org/2000/svg"
   xmlns="http://www.w3.org/2000/svg"
   xmlns:sodipodi="http://sodipodi.sourceforge.net/DTD/sodipodi-0.dtd"
   xmlns:inkscape="http://www.inkscape.org/namespaces/inkscape"
   version="1.1"
   id="Layer_1"
   x="0px"
   y="0px"
   width="353.746px"
   height="353.777px"
   viewBox="0 0 353.746 353.777"
   enable-background="new 0 0 353.746 353.777"
   xml:space="preserve"
   inkscape:version="0.48.2 r9819"
   sodipodi:docname="openfl-o-logo.svg"><defs
   id="defs205" /><sodipodi:namedview
   pagecolor="#ffffff"
   bordercolor="#666666"
   borderopacity="1"
   objecttolerance="10"
   gridtolerance="10"
   guidetolerance="10"
   inkscape:pageopacity="0"
   inkscape:pageshadow="2"
   inkscape:window-width="1440"
   inkscape:window-height="852"
   id="namedview203"
   showgrid="false"
   inkscape:zoom="1.2084386"
   inkscape:cx="246.89126"
   inkscape:cy="113.15849"
   inkscape:window-x="0"
   inkscape:window-y="0"
   inkscape:window-maximized="1"
   inkscape:current-layer="g5" />
<metadata
   id="metadata3">
	<ns:sfw>
		<ns:slices />
		<ns:sliceSourceBounds
   height="355.67"
   y="438.33"
   x="-63.62"
   width="491.91"
   bottomLeftOrigin="true" />
	</ns:sfw>
<rdf:RDF><cc:Work
     rdf:about=""><dc:format>image/svg+xml</dc:format><dc:type
       rdf:resource="http://purl.org/dc/dcmitype/StillImage" /><dc:title></dc:title></cc:Work></rdf:RDF></metadata>
<g
   id="g5">
	<g
   id="g7">
		<polyline
   fill="#00B6B2"
   points="0,0 0,353.777 353.746,353.777 353.746,0 0,0   "
   id="polyline9" />
	</g>
	
	
	
	
	
	
	
	
	
	
	
	
	
	
	
	
	
	
	
	
	
	
	
	
	
	
	
	
	
	
	
	
	
	
	
	
	
	
	
	
	
	
	
	
	
	
	
	
	
	
	
	
	
	
	
	
	
	
	
	
	
	
	
	
	
	
	
	
	
	
	
	
	
	
	
	
	
	
	
	
	
	
	
	
	
	
	
	
	
	
	<path
   d="m 193.65112,70.935379 0,8.190892 c 44.06355,8.718718 67.64088,52.083389 67.64088,97.762219 0,46.38536 -23.57733,89.3033 -67.64088,97.89433 l 0,8.05877 c 49.34755,-8.67888 75.69965,-55.20659 75.69965,-105.9531 0,-50.4795 -26.48209,-97.331298 -75.69965,-105.95311 z m -34.08467,0.132147 c -49.00698,8.977662 -75.17122,55.608214 -75.17122,105.820994 0,50.69492 26.21542,97.20614 75.17122,105.9531 l 0,-8.19086 c -44.09454,-8.91332 -67.112444,-51.62829 -67.112444,-97.76218 0,-45.43122 23.017904,-88.585184 67.112444,-97.630108 l 0,-8.190891 z"
   id="path191"
   style="fill:#ffffff"
   inkscape:connector-curvature="0" />
	
	
	
	
	
</g>
</svg>