<?xml version="1.0" encoding="UTF-8"?>
<!DOCTYPE svg PUBLIC "-//W3C//DTD SVG 1.0//EN" "http://www.w3.org/TR/2001/REC-SVG-20010904/DTD/svg10.dtd">
<svg width="128" height="128" version="1" xmlns="http://www.w3.org/2000/svg">
<path d="M 0 0 H 128 V 128 H 0 z" fill="#00b6b2"/>
<path d="m35.431486 120.18418c-0.527197 0-0.94331-0.1346-1.257385-0.34481-0.314799-0.20985-0.523217-0.48917-0.659268-0.76125-0.270655-0.54524-0.268122-1.0648-0.269207-1.08289V98.82437c-0.000724-0.528604 0.134242-0.945771 0.344469-1.260184 0.209866-0.315136 0.489566-0.523539 0.761668-0.659217 0.545289-0.270996 1.064526-0.268463 1.082979-0.269549v0.218895 0.218895h-0.0072l-0.03003 0.0014c-0.0275 0.0014-0.06839 0.0043-0.119406 0.01013-0.1024 0.01194-0.24605 0.03582-0.403811 0.08322-0.317331 0.09516-0.682063 0.281127-0.919791 0.638957-0.159208 0.239518-0.270292 0.561167-0.271016 1.017409v19.17086 0.007l0.0014 0.03c0.0011 0.0271 0.004 0.068 0.01013 0.1194 0.01158 0.10239 0.03546 0.24603 0.08322 0.40378 0.09516 0.31731 0.281147 0.68201 0.639005 0.91972 0.239536 0.15883 0.560848 0.27027 1.017486 0.271h33.45911l0.0072-0.00037 0.03003-0.001c0.0275-0.001 0.06839-0.004 0.119406-0.0101 0.1024-0.0119 0.246049-0.0358 0.403811-0.0832 0.317331-0.0952 0.682063-0.28112 0.91979-0.63895 0.158847-0.23952 0.270293-0.56117 0.271017-1.01741v-19.17086-0.0072l-0.0014-0.03003c-0.0014-0.0275-0.0043-0.06802-0.01013-0.119397-0.01158-0.102392-0.03582-0.246031-0.08322-0.40378-0.09516-0.317307-0.281147-0.682011-0.639005-0.91972-0.239536-0.158835-0.560848-0.270272-1.017487-0.270996H35.434742V96.854315 96.63542h33.45911c0.0014 0 0.0025 0 0.004 0 0.526835 0 0.942586 0.134594 1.256299 0.344805 0.315161 0.20985 0.523579 0.489167 0.659268 0.761248 0.271016 0.545247 0.268484 1.064806 0.269569 1.082897v19.17086c0.000724 0.5286-0.134242 0.94577-0.344469 1.26018-0.209866 0.31514-0.489566 0.52354-0.761668 0.65922-0.545289 0.27099-1.064526 0.2681-1.08298 0.26955h-33.45911c-0.0011 0-0.0022 0-0.0033 0m-8.172823 5.239c-0.124834 0-0.239536-0.0344-0.327101-0.0933-0.08865-0.0593-0.146182-0.13785-0.181642-0.20877-0.06984-0.14328-0.0673-0.2605-0.06839-0.27859v-1.4078c-0.000723-0.12664 0.03365-0.24242 0.09335-0.3307 0.05934-0.089 0.13786-0.14653 0.20878-0.18199 0.143287-0.0695 0.260523-0.0669 0.278615-0.0684v0.21889 0.2189-0.2189-0.21889h4.958258 39.848074 4.997699c0.0011 0 0.0022 0 0.0033 0 0.125196 0 0.239536 0.0344 0.327101 0.0934 0.08901 0.0593 0.146544 0.13785 0.182004 0.20876 0.06983 0.14328 0.06694 0.2605 0.06839 0.27896v1.4078c0.000362 0.12627-0.03365 0.24205-0.09335 0.33033-0.05934 0.089-0.13786 0.14653-0.20878 0.18199-0.143288 0.0695-0.260523 0.0669-0.278615 0.0684H27.262282c-0.0011 0-0.0022 0-0.0036 0m-0.139307-0.58324 0.0011 0.0109 0.0087 0.043c0.01049 0.0347 0.02714 0.0601 0.04559 0.0716 0.01339 0.008 0.03329 0.0192 0.08756 0.0199H77.06378l0.01049-0.001 0.04342-0.009c0.03474-0.0101 0.06006-0.0268 0.07164-0.0452 0.0083-0.0134 0.01918-0.0333 0.0199-0.0876v-1.40491-0.00072l-0.0011-0.0109-0.009-0.043c-0.01049-0.0347-0.02678-0.0601-0.04523-0.0716-0.01339-0.008-0.03329-0.0192-0.08757-0.0199h-49.800775-0.000724l-0.01086 0.001-0.04306 0.009c-0.03474 0.0105-0.06006 0.0268-0.07164 0.0452-0.0083 0.0134-0.01918 0.0333-0.0199 0.0879v1.40526m44.949258-1.98633H32.22054c-0.313713-0.20949-0.521407-0.48844-0.657097-0.7598-0.270654-0.54525-0.268121-1.06481-0.269207-1.0829V96.565591c-0.000723-0.528604 0.134242-0.945771 0.34447-1.260184 0.209865-0.315136 0.489566-0.523539 0.761668-0.659217 0.545289-0.270996 1.064525-0.268463 1.082979-0.269549v0.218895 0.218895h-0.0072l-0.03039 0.0014c-0.02714 0.0014-0.06803 0.0043-0.119045 0.01013-0.1024 0.01194-0.246049 0.03582-0.40381 0.08322-0.317693 0.09516-0.682064 0.281126-0.919791 0.638956-0.159208 0.239518-0.270654 0.561167-0.271016 1.017409v24.445319 0.007l0.0011 0.03c0.0014 0.0271 0.0043 0.068 0.01049 0.11939 0.01158 0.1024 0.03546 0.24604 0.08286 0.40378 0.09553 0.31731 0.28151 0.68202 0.639005 0.91973 0.239537 0.15883 0.56121 0.27027 1.017849 0.27099h37.361889l0.0072-0.00036 0.03039-0.001c0.02714-0.001 0.06802-0.004 0.119044-0.0101 0.1024-0.0119 0.24605-0.0358 0.403811-0.0832 0.317331-0.0952 0.682064-0.28113 0.919791-0.63896 0.158846-0.23952 0.270292-0.56117 0.271016-1.01741v-24.445319-0.0072l-0.0011-0.03003c-0.0018-0.0275-0.0043-0.06802-0.01049-0.119398-0.01158-0.102392-0.03582-0.24603-0.08286-0.403779-0.09553-0.317308-0.28151-0.682012-0.639005-0.919721-0.239899-0.158835-0.56121-0.270272-1.017849-0.270996H33.483353v-0.218895-0.218895h37.361889c0.0014 0 0.0025 0 0.004 0 0.526835 0 0.942587 0.134594 1.256662 0.344805 0.314798 0.20985 0.523578 0.489167 0.659267 0.761248 0.270655 0.545248 0.268122 1.064807 0.269207 1.082897v24.445319c0.000724 0.52861-0.134241 0.94577-0.344469 1.26018-0.174044 0.26087-0.395488 0.44865-0.621275 0.58252" fill="#0095a8"/>
<path d="m86.90625 89.75c-0.01809 0.0011-1.02475 0.01422-2.0625 0.53125-0.518513 0.259056-1.042736 0.657717-1.4375 1.25-0.395127 0.591559-0.656974 1.353973-0.65625 2.375l0 24.03125c0.0011 0.0181-0.01707 1.02482 0.5 2.0625 0.259076 0.51847 0.657672 1.04313 1.25 1.4375 0.590881 0.39474 1.386954 0.65625 2.40625 0.65625l10.15625 0c0.01809-0.001 1.02475-0.0142 2.0625-0.53125 0.518513-0.25906 1.04274-0.62683 1.4375-1.21875 0.39477-0.59156 0.65697-1.38522 0.65625-2.40625l0-24.03125c-0.001-0.01809 0.0171-1.02483-0.5-2.0625-0.25908-0.518474-0.65767-1.042766-1.25-1.4375C98.87787 90.011877 98.081797 89.75 97.0625 89.75zm0 0.4375 10.15625 0c0.9491 0.000723 1.639547 0.250031 2.15625 0.59375 0.773247 0.514856 1.17599 1.273941 1.375 1.9375 0.12763 0.390517 0.14245 0.811935 0.18745 1.1875l0 17.21875-17.59375 0 0-17.21875c0.000724-0.949027 0.218754-1.639585 0.5625-2.15625 0.514895-0.773187 1.30514-1.144754 1.96875-1.34375 0.397692-0.142984 0.819217-0.166807 1.1875-0.21875zm-2.96875 4.28125c0 5.375 0 10.75 0 16.125l16.40625 0 0-16.125zm0.4375 0.4375 15.53125 0 0 15.25-15.53125 0zm-1.1875 16.65625 1.375 0 0 1.875-1.375 0zm1.8125 0 1.53125 0 0 1.875-1.53125 0zm1.96875 0 1.53125 0 0 1.875-1.53125 0zm1.96875 0 1.21875 0 0 1.875-1.21875 0zm1.65625 0 1.375 0 0 1.875-1.375 0zm1.8125 0 1.34375 0 0 1.875-1.34375 0zm1.78125 0 1.21875 0 0 1.875-1.21875 0zm1.65625 0 1.375 0 0 1.875-1.375 0zm1.8125 0 1.6875 0 0 1.875-1.6875 0zm2.125 0 1 0 0 1.875-1 0zm-16.59375 2.3125 1.375 0 0 1.6875-1.375 0zm1.8125 0 1.53125 0 0 1.6875-1.53125 0zm1.96875 0 1.53125 0 0 1.6875-1.53125 0zm1.96875 0 1.21875 0 0 1.6875-1.21875 0zm1.65625 0 1.375 0 0 1.6875-1.375 0zm1.8125 0 1.34375 0 0 1.6875-1.34375 0zm1.78125 0 1.21875 0 0 1.6875-1.21875 0zm1.65625 0 1.375 0 0 1.6875-1.375 0zm1.8125 0 1.6875 0 0 1.6875-1.6875 0zm2.125 0 1 0 0 1.6875-1 0zM83.1875 116l1.375 0 0 1.71875-1.375 0zm1.8125 0 1.53125 0 0 1.71875-1.53125 0zm1.96875 0 1.53125 0 0 1.71875-1.53125 0zm1.96875 0 1.21875 0 0 1.71875-1.21875 0zm1.65625 0 1.375 0 0 1.71875-1.375 0zm1.8125 0 1.34375 0 0 1.71875-1.34375 0zm1.78125 0 1.21875 0 0 1.71875-1.21875 0zm1.65625 0 1.375 0 0 1.71875-1.375 0zm1.8125 0 1.6875 0 0 1.71875-1.6875 0zm2.125 0 1 0 0 1.71875-1 0zm-16.59375 2.15625 1.28125 0c0.08937 0.33829 0.257109 0.73374 0.5625 1.09375 0.395126 0.4689 1.041854 0.84375 2 0.84375 3.34375 0 6.6875 0 10.03125 0 0.01701-0.00072 0.599284 0.0203 1.21875-0.25 0.309371-0.13567 0.60724-0.34293 0.875-0.65625 0.223977-0.26195 0.40303-0.61155 0.5-1.03125l1.125 0c-0.0347 0.83433-0.24661 1.4628-0.5625 1.9375-0.51489 0.77319-1.304779 1.1444-1.96875 1.34375-0.438267 0.16179-0.806449 0.20812-1.1875 0.2187l-10.15625 0c-0.949099-0.00073-1.639546-0.25003-2.15625-0.59375-0.773246-0.51485-1.175989-1.27394-1.375-1.9375-0.08907-0.32329-0.132661-0.65773-0.1875-0.9687zm1.75 0 1.59375 0 0 1.46875c-0.552526-0.097-0.901155-0.36066-1.15625-0.65625-0.217826-0.25508-0.35464-0.54476-0.4375-0.8125zm2.03125 0 1.53125 0 0 1.5c-0.509932 0-1.022096 0-1.53125 0zm1.96875 0 1.21875 0 0 1.5-1.21875 0zm1.65625 0 1.375 0 0 1.5-1.375 0zm1.8125 0 1.34375 0 0 1.5-1.34375 0zm1.78125 0 1.21875 0 0 1.5-1.21875 0zm1.65625 0 1.375 0 0 1.5c-0.447027 0.00057-0.916377 0-1.375 0zm1.8125 0 1.5625 0c-0.222402 0.82533-0.883194 1.13233-1.5625 1.43745zM0 36.621931l0 0.440955 5.7215548 0M0 36.621931l0 0.440955 5.7215548 0M0 36.621931l0 0.440955 5.7215548 0c0.6618008 0.000724 1.137617 0.15983 1.4925796 0.39573 0.5308155 0.353126 0.800294 0.883811 0.9385159 1.34548 0.061512 0.204423 0.094259 0.398715 0.1130742 0.542715l-8.2657245 0 0 0.440956 8.2883393 0 0 31.160872-8.2883393 0 0 0.440956 8.2883393 0c-0.024243 0.580705-0.1790191 1.007821-0.3957597 1.334174-0.3531534 0.530775-0.8951859 0.799871-1.3568905 0.938444-0.2301286 0.06874-0.438547 0.107005-0.5879859 0.124372-0.074539 0.0087-0.1290855 0.0091-0.1696113 0.01129l-0.04523 0.01132-0.011308 0-5.7215548 0 0 0.429649 5.7215548 0c0.018092-0.0014 0.7421287 0.000272 1.4925796-0.373116 0.3748636-0.187056 0.7533456-0.462664 1.0402827-0.893218 0.2872989-0.42983 0.4756353-1.00746 0.4749116-1.74121l0-31.601828C8.7278814 39.611384 8.7296001 38.887403 8.3561838 38.137009 8.168752 37.762536 7.8821768 37.383721 7.4515902 37.096806 7.022451 36.810253 6.453552 36.621931 5.7215548 36.621931zm0 5.653278 0 0.440956 6.9201414 0 0 25.58674-6.9201414 0 0 0.440955 7.3611308 0 0-26.468651zM62.252688 53.951628c-0.731998 0-1.302253-0.18597-1.731393-0.472885-0.430586-0.286554-0.716076-0.668987-0.903146-1.04346-0.373416-0.750394-0.370883-1.475099-0.371969-1.493189V19.33909c-0.000723-0.733751 0.185623-1.305048 0.472922-1.734878 0.286937-0.430554 0.669037-0.716022 1.043539-0.903078 0.750813-0.373388 1.475211-0.370855 1.493665-0.37194v0.218895 0.218895h-0.01266l-0.04523 0.0018c-0.04016 0.0022-0.100229 0.0065-0.174767 0.0152-0.149078 0.01701-0.357858 0.05174-0.587625 0.120844-0.461704 0.138573-0.999395 0.411016-1.352548 0.942153-0.20082 0.301749-0.348449 0.691057-0.388613 1.207721-0.0072 0.09081-0.01085 0.185247-0.01085 0.284383v0.153407 31.168832 0.280765 0.0123l0.0018 0.04523c0.0014 0.02569 0.0036 0.05934 0.0072 0.0995 0.0022 0.02279 0.0047 0.04812 0.008 0.07526 0.01701 0.149427 0.05174 0.35783 0.120854 0.587579 0.138583 0.461669 0.411047 0.999319 0.942224 1.352807 0.354963 0.2359 0.830417 0.398714 1.492218 0.399076h13.1347 0.0123l0.04523-0.0018c0.04016-0.0022 0.100229-0.0065 0.174767-0.0152 0.149439-0.01701 0.357858-0.05174 0.587986-0.120844 0.461343-0.138574 0.999395-0.411016 1.352549-0.942153 0.21674-0.325991 0.371607-0.754012 0.39585-1.334717 0.0022-0.05138 0.0033-0.103477 0.0033-0.157025V50.661329 19.492497 19.33909 19.326426l-0.0018-0.04523c-0.0022-0.04016-0.0065-0.100221-0.01483-0.174754-0.0022-0.01664-0.0043-0.03365-0.0065-0.05174-0.01918-0.144-0.05319-0.331418-0.114703-0.53584-0.138583-0.46167-0.411047-0.999319-0.942224-1.352445-0.354963-0.236262-0.830417-0.398715-1.491856-0.399438h-13.1347v-0.218895-0.218895h13.1347c0.0011 0 0.0025 0 0.0036 0 0.731997 0 1.301891 0.18597 1.731392 0.472885 0.430225 0.286915 0.715715 0.668986 0.902785 1.04346 0.373416 0.750755 0.370883 1.475098 0.371969 1.493551v31.603004c0.000723 0.73375-0.185261 1.304686-0.47256 1.734516-0.287299 0.430554-0.669399 0.716022-1.043901 0.903078-0.750451 0.373387-1.475211 0.370855-1.493303 0.37194h-13.1347c-0.0014 0-0.0025 0-0.0036 0M77.031577 48.45248H60.615373V22.204262 21.985367H77.031577V48.45248M61.053196 22.423157V48.01469H76.593754V22.423157H61.053196m-0.218911-0.218895v0.218895-0.218895M77.962946 19.492497H59.684004V19.33909c0-0.09914 0.0036-0.193569 0.01085-0.284383h18.24493c0.0022 0.01809 0.0043 0.0351 0.0065 0.05174 0.0083 0.07453 0.01266 0.134593 0.01483 0.174754l0.0018 0.04523v0.01266 0.153407m-0.0033 31.606622H59.693049c-0.0036-0.04016-0.0058-0.07381-0.0072-0.0995l-0.0018-0.04523v-0.0123-0.280765h18.278942v0.280765c0 0.05355-0.0011 0.105648-0.0033 0.157025" fill="#6bc9c7"/>
<path d="m19.544289 47.90868-0.437824 0 0-5.055931 0.437824 0 0 5.055931 29.275183-0.572383c-1.080447 0-1.956093-0.87558-1.956093-1.955582 0-1.080364 0.875646-1.955944 1.956093-1.955944 1.080085 0 1.955731 0.87558 1.955731 1.955944l0 0 0 0 0 0c0 1.080002-0.875646 1.955582-1.955731 1.955582m0-3.473736c-0.420093 0-0.798213 0.169688-1.073572 0.444664-0.274996 0.275337-0.444698 0.653429-0.444698 1.07349 0 0.419699 0.169702 0.79779 0.444698 1.073128 0.275359 0.275337 0.653479 0.444664 1.073572 0.444664 0.419731 0 0.797852-0.169327 1.07321-0.444664 0.275358-0.275338 0.444698-0.653429 0.444698-1.073128 0-0.420061-0.16934-0.798153-0.444698-1.07349-0.275358-0.274976-0.653479-0.444664-1.07321-0.444664M19.338041 54.675248c-0.731997 0-1.301891-0.185971-1.731392-0.472886-0.430225-0.286915-0.715715-0.668986-0.902784-1.043459-0.373417-0.750394-0.370884-1.475099-0.371969-1.493551l0 0 0 0V39.095716c-0.000724-0.73375 0.18526-1.305048 0.472921-1.734878 0.286575-0.430554 0.669038-0.716022 1.043539-0.903078 0.750451-0.373387 1.475212-0.370855 1.493304-0.37194h29.615672c0.0014 0 0.0025 0 0.004 0 0.731997 0 1.301891 0.18597 1.731031 0.472885 0.430586 0.286916 0.716076 0.668987 0.903146 1.04346 0.373054 0.750755 0.370521 1.475099 0.371969 1.493551v12.569636c0.000362 0.734112-0.185623 1.305048-0.472922 1.73524-0.286937 0.430192-0.669399 0.71566-1.043901 0.902715-0.750451 0.373388-1.475211 0.370855-1.493303 0.371941H19.34166c-0.0011 0-0.0025 0-0.0036 0m-2.568322-3.009896v0.01266l0.0018 0.04523c0.0022 0.04016 0.0065 0.100222 0.0152 0.174754 0.01701 0.149428 0.05174 0.35783 0.120854 0.58758 0.138584 0.461669 0.411047 0.99968 0.941863 1.352807 0.355324 0.2359 0.830779 0.398352 1.492218 0.399076h29.615672 0.0123l0.04523-0.0018c0.04053-0.0022 0.100229-0.0065 0.174768-0.0152 0.149439-0.017 0.357857-0.05174 0.587986-0.120845 0.461704-0.138573 0.999395-0.411016 1.352548-0.942153 0.235918-0.354935 0.398745-0.830353 0.399469-1.492103V39.095716l-0.000362-0.01266-0.0018-0.04523c-0.0022-0.04016-0.0062-0.09986-0.01483-0.174754-0.01737-0.149065-0.0521-0.35783-0.121215-0.587579-0.138584-0.461669-0.411048-0.999319-0.941863-1.352445-0.354963-0.2359-0.830417-0.398715-1.492218-0.399438H19.34166l-0.0123 0.000362-0.04523 0.0018c-0.04016 0.0018-0.100229 0.0061-0.174767 0.01483-0.149439 0.01737-0.357857 0.0521-0.587624 0.120844-0.462067 0.138574-0.999395 0.411378-1.35291 0.942153-0.235918 0.354936-0.398745 0.830354-0.399107 1.492104v12.569636m29.375774 1.743923H22.149518 21.930245V37.351793H46.145493V53.409275M22.36843 52.971485H45.70767V37.789582H22.36843v15.181903" fill="#a59368"/>
<path d="m111.63816 91.24391c-0.0181 0.0011-0.74212-0.000271-1.49258 0.373116-0.3745 0.187056-0.75334 0.473971-1.04028 0.904525-0.2873 0.42983-0.47527 0.996153-0.47491 1.729903l0 12.572896c0.001 0.0185 0.00009 0.74171 0.37314 1.49246 0.18707 0.37447 0.47401 0.75329 0.9046 1.04021 0.42914 0.28691 0.99767 0.47487 1.73003 0.47487l16.36184 0 0-0.42965-16.36184 0c-0.6618-0.00072-1.13761-0.17077-1.49258-0.40703-0.53081-0.35313-0.80029-0.88382-0.93851-1.34549-0.0691-0.22974-0.10702-0.43887-0.12438-0.58794-0.009-0.0749-0.009-0.14074-0.0113-0.1809l0-0.0452 0-0.0113 0-12.572888c0.00072-0.66175 0.15984-1.13753 0.39576-1.492465 0.35315-0.531137 0.89518-0.799871 1.35689-0.938445 0.23013-0.0691 0.43854-0.107367 0.58798-0.124372 0.0745-0.0087 0.12909-0.0091 0.16961-0.01129l0.0452 0 0.0113 0 16.36184 0 0-0.440956-16.36184 0zm2.5894 1.266334 0 16.055316 0.22615 0 13.54629 0 0-0.42965-13.33145 0 0-15.18471 13.33145 0 0-0.440956-13.77244 0zm-2.81554 5.506294 0 5.054032 0.42968 0 0-5.054032-0.42968 0z" fill="#6bc9c7"/>
<path d="m88.35926 11.822852-0.437823 0 0-5.0562924 0.437823 0 0 5.0562924 29.27482-0.572383c-1.08008 0-1.95573-0.87558-1.95573-1.9555823 0-1.0803641 0.87565-1.955944 1.95573-1.955944 1.08045 0 1.9561 0.8755799 1.9561 1.955944l0 0 0 0 0 0c0 1.0800023-0.87565 1.9555823-1.9561 1.9555823m0-3.4737364c-0.41973 0-0.79785 0.1696889-1.07321 0.4446643-0.27536 0.2753373-0.4447 0.6534286-0.4447 1.0734898 0 0.4196994 0.16934 0.7977903 0.4447 1.0731283 0.27536 0.275337 0.65348 0.444664 1.07321 0.444664 0.4201 0 0.79822-0.169327 1.07357-0.444664 0.27536-0.275338 0.4447-0.6534289 0.4447-1.0731283 0-0.4200612-0.16934-0.7981525-0.4447-1.0734898-0.27535-0.2749754-0.65347-0.4446643-1.07357-0.4446643M88.152651 18.58942c-0.731635 0-1.301891-0.185971-1.73103-0.472886-0.430587-0.286915-0.716077-0.668986-0.903147-1.043459-0.373054-0.750756-0.370521-1.475099-0.371968-1.493551l0 0 0 0V3.009888C85.146144 2.2761376 85.332128 1.7048399 85.619427 1.2750098 85.906364 0.84445611 86.288826 0.55898815 86.663328 0.37193246 87.413779-0.0014553 88.13854 0.00107737 88.156631-0.0000080566406H117.7723c0.001 0 0.003 0 0.004 0 0.732 0 1.30189 0.1859702566406 1.73139 0.4728854566406 0.43023 0.28691521 0.71572 0.6689864 0.90279 1.0438214 0.37342 0.7503936 0.37088 1.4750987 0.37197 1.4931892v12.569636c0.00072 0.73375-0.18526 1.305048-0.47292 1.734878-0.28694 0.430554-0.66904 0.716022-1.04354 0.903077-0.75045 0.373388-1.47521 0.370855-1.49331 0.371941H88.156631c-0.0014 0-0.0025 0-0.004 0m-2.568322-3.009896 0.000362 0.01266 0.0018 0.04523c0.0022 0.04016 0.0062 0.09986 0.01484 0.174754 0.01737 0.149066 0.0521 0.35783 0.121216 0.58758 0.138584 0.461669 0.411047 0.999318 0.941863 1.352807 0.354962 0.2359 0.830417 0.398352 1.492217 0.399076H117.7723l0.0123-0.000362 0.0452-0.0018c0.0402-0.0018 0.10022-0.0062 0.17476-0.01483 0.14944-0.01701 0.35786-0.0521 0.58763-0.120845 0.46206-0.138573 0.99939-0.411378 1.35291-0.942153 0.23592-0.354935 0.39874-0.830353 0.3991-1.492103V3.009888 2.9972247l-0.002-0.045226c-0.002-0.040161-0.007-0.1002213-0.0152-0.1747541-0.017-0.1494275-0.0517-0.35783-0.12086-0.5875792C120.0678 1.7279957 119.79534 1.1903463 119.26452 0.83721991 118.9092 0.6013199 118.43374 0.43850547 117.7723 0.43778185H88.156631l-0.0123 0-0.04523 0.001809c-0.04053 0.002171-0.100229 0.006513-0.174767 0.0148342-0.149439 0.0173669-0.357857 0.0521006-0.587986 0.12084449C86.874641 0.71384276 86.336951 0.98628557 85.983797 1.5174224 85.747879 1.8723579 85.585053 2.347776 85.584329 3.0095262V15.579524M114.9601 17.323447H90.964128 90.745217V1.2659646H114.9601V17.323447m-23.77706-0.43779h23.33924V1.7037545H91.18304V16.885657" fill="#a59368"/>
<path d="m128 14.393239c-0.0894 0.0022-0.55085 0.023-1.05159 0.271357-0.27174 0.13604-0.54773 0.341006-0.7576 0.65578-0.21059 0.314775-0.35125 0.737731-0.35053 1.266335l0 34.733744c0.001 0.01845 0.00073 0.540182 0.27138 1.08543 0.13569 0.272081 0.34067 0.558996 0.65583 0.768846 0.30898 0.20668 0.71691 0.335206 1.23251 0.339197l0-0.440956c-0.43717-0.0061-0.75059-0.116405-0.98374-0.271358-0.35786-0.237709-0.54936-0.598524-0.64453-0.915831-0.0474-0.157749-0.0672-0.304644-0.0791-0.407036-0.006-0.05101-0.01-0.08593-0.0113-0.113065l0-0.0339 0-0.01129 0-34.733745c0.00073-0.456604 0.11217-0.77771 0.27138-1.01759 0.23773-0.357468 0.59857-0.548956 0.9159-0.644474 0.15812-0.0474 0.30467-0.06757 0.40707-0.07915 0.0514-0.0062 0.0859-0.0099 0.11307-0.01131l0.0113 0 0-0.440956zm0 5.698505c-0.11206 0.09989-0.21348 0.224096-0.3053 0.361809-0.21059 0.314775-0.35125 0.726424-0.35053 1.255028l0 26.400812c0.001 0.01809 0.00072 0.540182 0.27138 1.08543 0.0915 0.183224 0.21639 0.364798 0.38445 0.531408l0-0.746233c-0.051-0.104516-0.0942-0.216037-0.12438-0.316584-0.0474-0.157749-0.0676-0.293337-0.0791-0.395729-0.006-0.05101-0.01-0.09724-0.0113-0.124372l0-0.0339 0-26.400812c0.00032-0.402022 0.0855-0.698298 0.21484-0.927137l0-0.6897z" fill="#6bc9c7"/>
<path d="m0 91.775318 0 0.429649 19.90106 0c1.005908 0.000724 1.735554 0.256795 2.284099 0.621861 0.821371 0.547056 1.236037 1.376686 1.44735 2.080407 0.105295 0.350955 0.166174 0.665277 0.192226 0.893218 0.01339 0.11397 0.01936 0.209126 0.02261 0.271357l0 0.06784 0 0.02261 0 8.694748c-0.000362 1.00619-0.245507 1.73542-0.610601 2.28392-0.546736 0.82131-1.376791 1.23594-2.080565 1.44724-0.350982 0.10529-0.676636 0.1658-0.904594 0.19221-0.113978 0.013-0.197834 0.0194-0.26007 0.0226l-0.06785 0-0.02261 0-19.90106 0 0 0.44096 19.90106 0c0.01845-0.001 1.087774-0.009 2.182332-0.55402 0.546737-0.27317 1.099082-0.6878 1.515195-1.31156 0.09082-0.13604 0.173139-0.27407 0.248763-0.42965l0 8.08419c-0.000362 1.00583-0.245507 1.73506-0.610601 2.28392-0.546736 0.82131-1.376791 1.24725-2.080565 1.45855-0.350982 0.10528-0.676636 0.15449-0.904594 0.1809-0.113978 0.013-0.197834 0.0194-0.26007 0.0226l-0.06785 0-0.02261 0-19.90106 0 0 0.44095 19.90106 0c0.01845-0.001 1.087774 0.003 2.182332-0.54271 0.546737-0.27317 1.099082-0.68744 1.515195-1.31156 0.416475-0.62376 0.690476-1.45484 0.689753-2.53267l0-8.69475c-0.000362-0.009-0.0074-0.26348-0.06785-0.64447 0.03944-0.2634 0.06821-0.5353 0.06785-0.83668l0-8.694748c-0.0011-0.01809-0.0088-1.087329-0.554064-2.182165-0.273187-0.546695-0.687491-1.099359-1.311661-1.515079-0.622722-0.416081-1.44545-0.6897-2.521555-0.6897l-19.90106 0zm0 1.277641 0 0.440956 13.557597 0c0.59667 0.000723 1.015859 0.139206 1.334276 0.350503 0.475816 0.316584 0.723223 0.805027 0.848057 1.221108 0.06224 0.206956 0.09752 0.396815 0.113074 0.531409 0.0076 0.06693 0.0091 0.12211 0.01131 0.158291l0 0.0339 0 0.01129 0 9.056554c-0.000724 0.59662-0.139217 1.01578-0.35053 1.33417-0.316608 0.47614-0.80545 0.72317-1.221201 0.84799-0.206971 0.0622-0.396846 0.0975-0.531449 0.11307-0.0673 0.008-0.121758 0.01-0.158304 0.0113l-0.03392 0-0.01131 0-13.557597 0 0 0.44095 13.557597 0c0.01809-0.001 0.671571 0.002 1.356891-0.33919 0.342298-0.17078 0.698798-0.43137 0.961131-0.82538 0.263055-0.39329 0.430043-0.91429 0.429682-1.58292l0-9.056552c-0.0011-0.01845 0.0016-0.671157-0.339223-1.356787-0.170787-0.34191-0.431763-0.698383-0.825442-0.961057-0.392955-0.262312-0.91581-0.429649-1.583039-0.429649L0 93.052959zm20.34205 5.981169c-0.778675 0-1.413066 0.634705-1.413428 1.413322 0.000362 0.77861 0.634753 1.41296 1.413428 1.41332 0.778312-0.00036 1.413065-0.63471 1.413427-1.41332-0.000362-0.778617-0.635115-1.413322-1.413427-1.413322zm0 0.440956c0.536605 0.0011 0.971352 0.4358 0.972438 0.972366-0.0011 0.53692-0.435833 0.97128-0.972438 0.97236-0.536967-0.001-0.971353-0.43544-0.972438-0.97236 0.0011-0.536566 0.435471-0.971281 0.972438-0.972366zM0 110.7025l0 0.44095 1.7526502 0 0 1.61684-1.7526502 0 0 0.44095 1.7526502 0 0 1.70729-1.7526502 0 0 0.42965 1.7526502 0 0 1.44724-1.7526502 0 0 0.44096 19.166078 0c0.01737-0.002 0.836206-0.0367 1.673498-0.47488 0.417922-0.21961 0.844077-0.5447 1.164665-1.01759 0.321311-0.47216 0.532172-1.09031 0.531448-1.87689l0-2.98493-0.316607 0 0-0.16959-22.219082 0zm2.1936396 0.44095 1.7978799 0 0 1.61684-1.7978799 0 0-1.61684zm2.2275619 0 1.7978798 0 0 1.61684-1.7978798 0 0-1.61684zm2.2388692 0 1.7978799 0 0 1.61684-1.7978799 0 0-1.61684zm2.2275619 0 1.7978794 0 0 1.61684-1.7978794 0 0-1.61684zm2.2388694 0 1.79788 0 0 1.61684-1.79788 0 0-1.61684zm2.227562 0 1.79788 0 0 1.61684-1.79788 0 0-1.61684zm2.238869 0 1.79788 0 0 1.61684-1.79788 0 0-1.61684zm2.227562 0 1.79788 0 0 1.61684-1.79788 0 0-1.61684zm2.238869 0 2.035336 0 0 1.61684-2.035336 0 0-1.61684zm-17.8657244 2.05779 1.7978799 0 0 1.70729-1.7978799 0 0-1.70729zm2.2275619 0 1.7978798 0 0 1.70729-1.7978798 0 0-1.70729zm2.2388692 0 1.7978799 0 0 1.70729-1.7978799 0 0-1.70729zm2.2275619 0 1.7978794 0 0 1.70729-1.7978794 0 0-1.70729zm2.2388694 0 1.79788 0 0 1.70729-1.79788 0 0-1.70729zm2.227562 0 1.79788 0 0 1.70729-1.79788 0 0-1.70729zm2.238869 0 1.79788 0 0 1.70729-1.79788 0 0-1.70729zm2.227562 0 1.79788 0 0 1.70729-1.79788 0 0-1.70729zm2.238869 0 2.035336 0 0 0.65578c-0.000358 0.41203-0.06472 0.75312-0.169611 1.05151l-1.865725 0 0-1.70729zm-17.8657244 2.13694 1.7978799 0 0 1.44724-1.7978799 0 0-1.44724zm2.2275619 0 1.7978798 0 0 1.44724-1.7978798 0 0-1.44724zm2.2388692 0 1.7978799 0 0 1.44724-1.7978799 0 0-1.44724zm2.2275619 0 1.7978794 0 0 1.44724-1.7978794 0 0-1.44724zm2.2388694 0 1.79788 0 0 1.44724-1.79788 0 0-1.44724zm2.227562 0 1.79788 0 0 1.44724-1.79788 0 0-1.44724zm2.238869 0 1.79788 0 0 1.44724-1.79788 0 0-1.44724zm2.227562 0 1.79788 0 0 1.3794c-0.07599 0.0159-0.142745 0.0355-0.203534 0.0452-0.08539 0.0138-0.157218 0.0183-0.203533 0.0226l-0.05654 0-0.01131 0-1.322968 0 0-1.44724zm2.238869 0 1.673498 0c-0.02931 0.0507-0.05862 0.1-0.09046 0.14699-0.405258 0.59879-1.032503 0.93112-1.560424 1.10804-0.0094 0.003-0.01321 0.008-0.02262 0.0113l0-1.26633z" fill="#a59368"/>
<path d="m116.9607 52.015945-0.43782 0 0-0.307176 0-1.379219 0-0.43779 0-1.705572 0-0.43779 0-1.616204 0-0.189227 0.43782 0 0 0.189227 0 1.616204 0 0.43779 0 1.705572 0 0.43779 0 1.261631 0 0.424764 -2.2329 0-0.43782 0 0-0.236623 0-1.449772 0-0.43779 0-1.705572 0-0.43779 0-1.616204 0-0.189227 0.43782 0 0 0.189227 0 1.616204 0 0.43779 0 1.705572 0 0.43779 0 1.449772 0 0.236623 -2.2329 0-0.43746 0 0-0.236623 0-1.449772 0-0.43779 0-1.705572 0-0.43779 0-1.616204 0-0.189227 0.43746 0 0 0.189227 0 1.616204 0 0.43779 0 1.705572 0 0.43779 0 1.449772 0 0.236623 -2.23253 0-0.43783 0 0-0.236623 0-1.449772 0-0.43779 0-1.705572 0-0.43779 0-1.616204 0-0.189227 0.43783 0 0 0.189227 0 1.616204 0 0.43779 0 1.705572 0 0.43779 0 1.449772 0 0.236623 -2.2329 0-0.43782 0 0-0.236623 0-1.449772 0-0.43779 0-1.705572 0-0.43779 0-1.616204 0-0.189227 0.43782 0 0 0.189227 0 1.616204 0 0.43779 0 1.705572 0 0.43779 0 1.449772 0 0.236623 -2.2329 0-0.43782 0 0-0.236623 0-1.449772 0-0.43779 0-1.705572 0-0.43779 0-1.616204 0-0.189227 0.43782 0 0 0.189227 0 1.616204 0 0.43779 0 1.705572 0 0.43779 0 1.449772 0 0.236623 -2.2329 0-0.43782 0 0-0.236623 0-1.449772 0-0.43779 0-1.705572 0-0.43779 0-1.616204 0-0.189227 0.43782 0 0 0.189227 0 1.616204 0 0.43779 0 1.705572 0 0.43779 0 1.449772 0 0.236623 -2.2329 0-0.43782 0 0-0.236623 0-1.449772 0-0.43779 0-1.705572 0-0.43779 0-1.616204 0-0.189227 0.43782 0 0 0.189227 0 1.616204 0 0.43779 0 1.705572 0 0.43779 0 1.449772 0 0.236623 -2.232897 0-0.437824 0 0-0.236623 0-1.449772 0-0.43779 0-1.705572 0-0.43779 0-1.616204 0-0.189227 0.437824 0 0 0.189227 0 1.616204 0 0.43779 0 1.705572 0 0.43779 0 1.449772 0 0.236623 -2.232899 0-0.437824 0 0-0.236623 0-1.449772 0-0.43779 0-1.705572 0-0.43779 0-1.616204 0-0.189227 0.437824 0 0 0.189227 0 1.616204 0 0.43779 0 1.705572 0 0.43779 0 1.449772 0 0.236623 -2.232899 0-0.437824 0 0-0.236623 0-1.449772 0-0.43779 0-1.705572 0-0.43779 0-1.616204 0-0.189227 0.437824 0 0 0.189227 0 1.616204 0 0.43779 0 1.705572 0 0.43779 0 1.449772 0 0.236623 -2.232899 0-0.437824 0 0-0.236623 0-1.449772 0-0.43779 0-1.705572 0-0.43779 0-1.616204 0-0.189227 0.437824 0 0 0.189227 0 1.616204 0 0.43779 0 1.705572 0 0.43779 0 1.449772 0 0.236623 -2.232538 0-0.437823 0 0-0.399076 0-1.287319 0-0.43779 0-1.705572 0-0.43779 0-1.616204 0-0.189227 0.437823 0 0 0.189227 0 1.616204 0 0.43779 0 1.705572 0 0.43779 0 1.396948 0 0.289447M118.82597 50.32955h-0.19249-1.67278v-0.43779h1.86527v0.02062 0.417167m-2.30309 0h-1.79508v-0.43779h1.79508v0.43779m-2.2329 0h-1.79508v-0.43779h1.79508v0.43779m-2.23254 0h-1.79507v-0.43779h1.79507v0.43779m-2.2329 0h-1.79507v-0.43779h1.79507v0.43779m-2.23289 0h-1.79508v-0.43779h1.79508v0.43779m-2.2329 0h-1.79508v-0.43779h1.79508v0.43779m-2.2329 0h-1.79508v-0.43779h1.79508v0.43779m-2.2329 0h-1.795077v-0.43779h1.795077v0.43779m-2.232901 0h-1.795075v-0.43779h1.795075v0.43779m-2.232899 0h-1.795075v-0.43779h1.795075v0.43779m-2.232899 0h-1.795075v-0.43779h1.795075v0.43779m-2.232899 0h-1.794714v-0.43779h1.794714v0.43779m-2.232537 0h-1.485704-0.17115v-0.381348-0.05644h1.656854v0.43779m1.075743 1.887562c-0.769628 0-1.378239-0.189589-1.846818-0.479398-0.469665-0.28981-0.796043-0.676585-1.020382-1.057571-0.447955-0.763056-0.501145-1.505128-0.503678-1.523581l-0.000362-0.0083v-3.217213h0.192136 0.245688v0.201166 1.616204 0.43779 0.944686l0.000361 0.0058 0.0054 0.04667c0.0054 0.04125 0.01447 0.102754 0.02895 0.179096 0.02895 0.149427 0.0796 0.356383 0.166083 0.58577v0.381348h0.17115c0.197563 0.375197 0.496079 0.759077 0.944757 1.035861 0.159209 0.09805 0.338318 0.1838 0.540947 0.251458v0.399076h0.437823v-0.289447c0.195031 0.03401 0.408153 0.05246 0.641176 0.05282h1.153538v0.236623h0.437824v-0.236623h1.795075v0.236623h0.437824v-0.236623h1.795075v0.236623h0.437824v-0.236623h1.795075v0.236623h0.437824v-0.236623h1.795077v0.236623h0.43782v-0.236623h1.79508v0.236623h0.43782v-0.236623h1.79508v0.236623h0.43782v-0.236623h1.79508v0.236623h0.43782v-0.236623h1.79507v0.236623h0.43783v-0.236623h1.79507v0.236623h0.43746v-0.236623h1.79508v0.236623h0.43782v-0.236623h1.32541l0.0109-0.000724 0.0525-0.0047c0.0463-0.0047 0.1147-0.01266 0.20009-0.02641 0.0608-0.0098 0.13026-0.02243 0.20625-0.03871v0.307176h0.43782v-0.424764c0.009-0.0033 0.0188-0.0062 0.0282-0.0094 0.52792-0.176925 1.14774-0.506534 1.55264-1.105691 0.0318-0.04704 0.0626-0.09588 0.0919-0.146533h0.19249v-0.417167c0.10711-0.300664 0.17079-0.653067 0.17115-1.069872v-0.656323-0.43779-1.616204-0.275338h0.12665 0.31118v2.985655c0.00072 0.786937-0.20987 1.407079-0.53082 1.879241-0.32095 0.472885-0.74611 0.795981-1.16439 1.015238-0.83729 0.438514-1.65107 0.477951-1.66843 0.47976l-0.006 0.000362H90.807814c-0.0011 0-0.0022 0-0.0033 0m28.192562-4.030924h-2.03642v-0.43779h2.03642v0.43779m-2.47424 0h-1.79508v-0.43779h1.79508v0.43779m-2.2329 0h-1.79508v-0.43779h1.79508v0.43779m-2.23254 0h-1.79507v-0.43779h1.79507v0.43779m-2.2329 0h-1.79507v-0.43779h1.79507v0.43779m-2.23289 0h-1.79508v-0.43779h1.79508v0.43779m-2.2329 0h-1.79508v-0.43779h1.79508v0.43779m-2.2329 0h-1.79508v-0.43779h1.79508v0.43779m-2.2329 0h-1.795077v-0.43779h1.795077v0.43779m-2.232901 0h-1.795075v-0.43779h1.795075v0.43779m-2.232899 0h-1.795075v-0.43779h1.795075v0.43779m-2.232899 0h-1.795075v-0.43779h1.795075v0.43779m-2.232899 0h-1.794714v-0.43779h1.794714v0.43779m-2.232537 0h-1.857673v-0.43779h1.857673v0.43779m29.268305-2.053994-2.03642 0 0-0.189227-0.43782 0 0 0.189227-1.79508 0 0-0.189227-0.43782 0 0 0.189227-1.79508 0 0-0.189227-0.43746 0 0 0.189227-1.79507 0 0-0.189227-0.43783 0 0 0.189227-1.79507 0 0-0.189227-0.43782 0 0 0.189227-1.79508 0 0-0.189227-0.43782 0 0 0.189227-1.79508 0 0-0.189227-0.43782 0 0 0.189227-1.79508 0 0-0.189227-0.43782 0 0 0.189227-1.795077 0 0-0.189227-0.437824 0 0 0.189227-1.795075 0 0-0.189227-0.437824 0 0 0.189227-1.795075 0 0-0.189227-0.437824 0 0 0.189227-1.795075 0 0-0.189227-0.437824 0 0 0.189227-1.794714 0 0-0.189227-0.437823 0 0 0.189227-1.857673 0 0-0.201166-0.245688 0 0-0.236624 31.498316 0 0 0.162452-0.12665 0 0 0.275338 -1.74912-9.288021 0 0 0 0 0 0 0 0c-0.77867 0-1.40972-0.630996-1.40972-1.409611 0-0.778615 0.63105-1.409611 1.40972-1.409611 0.77868 0 1.40972 0.630996 1.40972 1.409611 0 0.778615-0.63104 1.409611-1.40972 1.409611v-0.218895-0.218895c0.53661-0.0011 0.97117-0.435257 0.9719-0.971821-0.00073-0.536564-0.43529-0.971097-0.9719-0.971821-0.5366 0.000724-0.97081 0.435257-0.97189 0.971821 0.001 0.536564 0.43529 0.970736 0.97189 0.971821v0.218895 0.218895l0 0m-22.629675 5.745541c-0.666867 0-1.188274-0.169689-1.58123-0.432363C92.643416 41.895039 92.382531 41.54553 92.211744 41.20362 91.870893 40.51799 91.873426 39.858411 91.87234 39.840321v-9.04995c-0.000723-0.668624 0.168978-1.190716 0.432034-1.584003 0.262332-0.394011 0.612229-0.654876 0.954166-0.82565 0.68532-0.340825 1.344949-0.338293 1.363041-0.339378v0.218895 0.218895h-0.01049l-0.04053 0.0014c-0.03618 0.0022-0.0901 0.0058-0.157399 0.01375-0.134242 0.01556-0.322397 0.04667-0.529368 0.108905-0.415752 0.124824-0.898443 0.369769-1.21505 0.845911-0.211675 0.318393-0.35822 0.744967-0.358581 1.341229v9.04995 0.01085l0.0018 0.04052c0.0018 0.03618 0.0054 0.08973 0.01339 0.157025 0.0152 0.134593 0.04668 0.322373 0.108913 0.529328 0.124834 0.416081 0.369798 0.898736 0.845976 1.215319 0.318055 0.211297 0.745023 0.35783 1.341331 0.358554h15.838349l0.0109-0.000362 0.0405-0.0014c0.0362-0.0018 0.0901-0.0058 0.1574-0.01339 0.13424-0.01556 0.32204-0.04704 0.52901-0.108905 0.41611-0.124824 0.8988-0.370132 1.21541-0.845911 0.21167-0.318393 0.35822-0.744967 0.35858-1.341591v-9.04995-0.01049l-0.002-0.04052c-0.002-0.03618-0.005-0.09009-0.0134-0.157387-0.0156-0.134232-0.0467-0.322373-0.10891-0.529328-0.12483-0.41572-0.3698-0.898374-0.84598-1.214958-0.31841-0.211658-0.74502-0.358191-1.34169-0.358553H94.621581V28.260235 28.04134h15.838349c0.001 0 0.003 0 0.004 0 0.66687 0 1.18827 0.169689 1.58087 0.432001 0.39404 0.262312 0.65492 0.612182 0.82571 0.954092 0.34085 0.685268 0.33832 1.344848 0.3394 1.362938v9.04995c0.00073 0.668624-0.16934 1.191078-0.43203 1.584365-0.26233 0.393649-0.61223 0.654876-0.95417 0.82565-0.68532 0.340825-1.34495 0.33793-1.3634 0.339378H94.621581c-0.0011 0-0.0022 0-0.0033 0m-4.555534 1.637189c-1.076104 0-1.90435-0.272081-2.527073-0.6878-0.624169-0.416082-1.038835-0.970374-1.312022-1.517069-0.03799-0.07634-0.07309-0.152322-0.106019-0.22794-0.212036-0.48772-0.32095-0.955902-0.377396-1.311561-0.06043-0.381347-0.06006-0.633529-0.06043-0.642212l0 0 0 0v-8.692482c-0.000724-1.078193 0.271378-1.907461 0.687853-2.53086 0.416113-0.624122 0.970448-1.038756 1.517184-1.31156 1.094559-0.545609 2.163427-0.543077 2.18188-0.544162h26.734719c0.001 0 0.003 0 0.004 0 1.07611 0 1.90435 0.272081 2.52708 0.6878 0.62417 0.416082 1.03847 0.970374 1.31166 1.517069 0.54565 1.094475 0.54312 2.163261 0.5442 2.181713v8.692482c0 0.301387-0.021 0.583237-0.0608 0.846273-0.0713 0.473971-0.20226 0.887881-0.37703 1.24752-0.0756 0.15594-0.15957 0.301388-0.25039 0.437066-0.41575 0.624122-0.97009 1.038395-1.51683 1.311561-1.09492 0.545609-2.16378 0.543077-2.18188 0.544162H90.066771c-0.0014 0-0.0029 0-0.004 0m-3.945114-4.386582 0.000362 0.02135 0.0025 0.07055c0.0033 0.06187 0.0098 0.15377 0.0228 0.26774 0.02641 0.22794 0.07924 0.545247 0.184537 0.896203 0.211313 0.70372 0.629235 1.531541 1.450606 2.078597 0.548546 0.365066 1.282352 0.61363 2.28826 0.614353h26.734719l0.021-0.000362 0.0706-0.0029c0.0622-0.0033 0.15414-0.0094 0.26812-0.02279 0.2276-0.02605 0.54529-0.07924 0.89627-0.184523 0.70378-0.210935 1.53166-0.628826 2.07876-1.450134 0.36509-0.548504 0.61367-1.282254 0.6144-2.288085v-8.692482l-0.00036-0.02135-0.003-0.07055c-0.003-0.06223-0.01-0.15377-0.0228-0.26774-0.0264-0.22794-0.0793-0.545247-0.18454-0.896203-0.21131-0.70372-0.62887-1.531903-1.45025-2.078597-0.5489-0.365066-1.28235-0.613992-2.28826-0.614353H90.066771l-0.02135 0.000361-0.07056 0.0025c-0.06224 0.0033-0.153781 0.0098-0.26776 0.02316-0.227958 0.02605-0.545289 0.07924-0.896271 0.184523-0.703774 0.210935-1.53202 0.628825-2.078757 1.450134-0.365094 0.548504-0.614038 1.282254-0.6144 2.288085v8.692482m3.945114 14.567549c-1.076104 0-1.90435-0.271719-2.527073-0.6878-0.624169-0.416082-1.038835-0.970374-1.312022-1.517069-0.545289-1.094475-0.542756-2.163261-0.543842-2.181713l0 0 0 0v-8.692482c-0.000362-0.301387 0.02099-0.583237 0.06043-0.846273 0.05645 0.355659 0.16536 0.823841 0.377396 1.311561v8.227194l0.000362 0.02135 0.0025 0.07055c0.0033 0.06223 0.0098 0.15377 0.0228 0.26774 0.02641 0.22794 0.07924 0.545247 0.184537 0.896203 0.211313 0.70372 0.629235 1.531903 1.450606 2.078597 0.548546 0.365066 1.282352 0.613992 2.28826 0.614353h26.734719l0.021-0.000361 0.0706-0.0025c0.0622-0.0033 0.15414-0.0098 0.26812-0.02279 0.2276-0.02641 0.54529-0.07924 0.89627-0.184523 0.70378-0.211297 1.53166-0.629187 2.07876-1.450496 0.36509-0.548504 0.61367-1.282254 0.6144-2.288085v-8.087174c0.17477-0.359639 0.30575-0.773549 0.37703-1.24752 0.0604 0.381347 0.0601 0.633529 0.0608 0.642212v8.692482c0.00072 1.078193-0.27174 1.907461-0.68821 2.53086-0.41575 0.624122-0.97009 1.038756-1.51683 1.311922-1.09492 0.545247-2.16378 0.542715-2.18188 0.5438H90.066771c-0.0014 0-0.0029 0-0.004 0M122.76467 57.312931 122.76467 57.312931 122.76467 57.312931c-0.18344 0.01274-0.5879 0.06377-1.00636 0.271357-0.2779 0.138935-0.56565 0.356745-0.78022 0.678394-0.21529 0.321287-0.35125 0.737459-0.35053 1.277641l0 20.125672c0.001 0.01809 0.006 0.550856 0.28269 1.108043 0.13894 0.27787 0.3451 0.565961 0.66714 0.780152 0.32095 0.214192 0.7499 0.350503 1.28904 0.350503l5.13357 0 0-0.440955-5.13357 0c-0.46894-0.000724-0.79387-0.10782-1.04028-0.271358-0.36799-0.244583-0.56908-0.624122-0.66714-0.949751-0.0485-0.16209-0.0672-0.302111-0.0791-0.407036-0.006-0.05246-0.01-0.09615-0.0113-0.124372l0-0.0339 0-0.01129 0-20.125672c0.00072-0.468182 0.11914-0.793811 0.28269-1.040203 0.24496-0.367599 0.6125-0.558092 0.93851-0.655781 0.16211-0.04848 0.31308-0.07851 0.41838-0.09045 0.0525-0.0062 0.0962 0.0014 0.12438 0l0.0226-0.01129 0.0113 0 5.13357 0 0-0.429649-5.13357 0c-0.005 0.000271-0.0406-0.0042-0.10176 0zm-0.23746 1.447239 0 0.226131 0 19.334214 5.47279 0 0-0.440956-5.04311 0 0-18.678433 5.04311 0 0-0.440956-5.47279 0z" fill="#0095a8"/>
<path d="m105.6616 77.340102c2.54963 0 5.09926 0 7.64889 0 0 1.476426 0 2.952849 0 4.429276-4.32457 0-8.64912 0-12.97369 0 0-5.760375 0-11.520749 0-17.281124 1.77494 0 3.54987 0 5.3248 0 0 4.283948 0 8.5679 0 12.851848zM98.450907 68.91753c-2.678802 0-5.357608 0-8.03641 0 0 0.718073 0 1.436143 0 2.154216 2.299597 0 4.599197 0 6.898793 0 0 1.371502 0 2.743 0 4.114502-2.299596 0-4.599196 0-6.898793 0 0 2.194376 0 4.388753 0 6.58313-1.774813 0-3.549625 0-5.324438 0 0-5.760375 0-11.520749 0-17.281124 4.453615 0 8.907233 0 13.360848 0 0 1.476427 0 2.95285 0 4.429276z" fill="#e31937"/>
<path d="m24.469258 63.91596 0 0.701007c3.771411 0.746179 5.7894 4.45749 5.7894 8.366853 0 3.969831-2.017989 7.642907-5.7894 8.378159l0 0.6897c4.22367-0.742771 6.479152-4.724785 6.479152-9.067859 0-4.320223-2.26661-8.329974-6.479152-9.06786zm-2.917314 0.01129c-4.194519 0.768339-6.433923 4.759156-6.433923 9.056552 0 4.338658 2.243784 8.319261 6.433923 9.06786l0-0.701007c-3.774062-0.762836-5.74417-4.418541-5.74417-8.366853 0-3.888171 1.970108-7.581446 5.74417-8.355546l0-0.701006zm46.948591 0.277689h0.683511v4.339909h0.06803c0.649499-2.699463 2.870819-4.74984 6.322386-4.74984 3.65673 0 6.253999 2.255523 6.253999 6.321904V81.769358H81.144945V70.219303c0-4.066381-2.597269-5.740837-5.570488-5.740837-4.203104 0-6.390411 3.451304-6.390411 7.346911v9.943981h-0.683511v-17.56442l0 0zm-17.431158 8.918974c0.06839 4.715468 1.948133 8.371918 6.93751 8.371918 3.622717 0 6.288373-2.016004 6.869122-5.808857h0.683511c-0.478711 4.032009-3.485942 6.492678-7.484246 6.492678-5.433713 0.06838-7.689046-3.964351-7.689046-9.192141 0-5.843591 3.724755-9.192503 7.689046-9.192503 5.468088 0 7.894208 4.510684 7.689408 9.328905H51.069377l0 0zm14.011432-0.683458c0.03474-4.305538-2.392107-7.961988-6.936786-7.961988-3.793865 0-6.835109 3.041374-7.074646 7.961988h14.011432l0 0zM33.741705 87.817734H33.058194V64.204938h0.683511v4.920976h0.06802c0.888673-3.075384 3.45193-5.330907 7.03991-5.330907 4.647802 0 7.484608 3.861235 7.484608 9.157769 0 4.921338-2.631644 9.226875-7.484608 9.226875-3.724755 0-6.219262-2.153131-7.03991-5.331268h-0.06802v10.969351l0 0zM47.650737 72.952776c0-4.510321-2.255695-8.47431-6.801097-8.47431-4.510666 0-7.107935 3.929979-7.107935 8.47431 0 5.43366 2.836444 8.543054 7.107935 8.543054 4.818951 0 6.801097-4.476311 6.801097-8.543054l0 0z" fill="#fff"/>
<path d="M39.23675-0.0000091165955C39.022889 0.08550872 38.809304 0.17432575 38.592227 0.28265482 37.616713 0.77001268 36.638485 1.505753 35.90106 2.6118057 35.163274 3.7174965 34.667828 5.1991078 34.668552 7.1344287l0 17.0729013c0.0011 0.01809-0.0016 1.937492 0.972438 3.889456 0.487757 0.975078 1.22283 1.964899 2.329328 2.702268 1.10469 0.737006 2.578364 1.221108 4.511661 1.221108l0.01129 0 0.734982 0c0.01809-0.0011 1.948947 0.002 3.90106-0.972364 0.975152-0.487358 1.953741-1.223098 2.691166-2.329151 0.737787-1.105691 1.221925-2.575996 1.221202-4.511317l0-17.0729013C51.040231 7.1163382 51.04385 5.1856304 50.06924 3.2336663 49.581863 2.258227 48.846067 1.2800741 47.73993 0.54270564 47.441968 0.34388455 47.120584 0.15769053 46.767492-0.0000091165955l-1.356891 0C46.232327 0.2024225 46.92344 0.51906459 47.502474 0.90451548c1.545408 1.02971082 2.321549 2.58259862 2.713781 3.88945582 0.195754 0.6523431 0.301682 1.2380228 0.35053 1.6620639 0.0246 0.2120206 0.02815 0.3802622 0.0339 0.4974885 0.0033 0.058251 0.01057 0.1056485 0.01129 0.1356787l0 0.045226 0 17.0729013c-0.000724 1.863683-0.466228 3.242359-1.153357 4.273879-1.029428 1.54529-2.582796 2.321372-3.889753 2.713574-0.652755 0.195739-1.238117 0.290352-1.662191 0.339197-0.212037 0.0246-0.380653 0.03908-0.497526 0.04523-0.05862 0.0029-0.105657 0.01058-0.135689 0.01131l-0.04523 0-0.734982 0c-1.863825-0.000724-3.242607-0.466192-4.274205-1.153269-1.545408-1.029349-2.332857-2.582599-2.725089-3.889456-0.195754-0.652705-0.290013-1.238023-0.339222-1.662064-0.02424-0.212021-0.03944-0.391931-0.04523-0.508795-0.0033-0.05861 0.000724-0.09434 0-0.124372l0-0.04523 0-17.0729013C35.110229 5.2707462 35.575732 3.891708 36.262862 2.8605499 37.292289 1.3152601 38.83435 0.52787144 40.141307 0.13566957 40.321303 0.08159493 40.504606 0.04017863 40.672756-0.0000091165955l-1.436043 0zM40.819788 1.7525073l0 0.4296492 4.070672 0 0-0.4296492-4.070672 0zm-4.308127 2.2047787 0 0.2148246 0 19.2211474 12.698234 0 0-19.435972-12.698234 0zm0.429682 0.4296492 11.83887 0 0 18.5766738-11.83887 0 0-18.5766738zm5.913781 21.6972838c-0.613676 0.000362-1.107765 0.494413-1.108127 1.108043 0.000362 0.613267 0.494451 1.108042 1.108127 1.108042 0.613315 0 1.119073-0.494775 1.119435-1.108042-0.000362-0.61363-0.50612-1.107681-1.119435-1.108043zm0 0.429649c0.373416 0.000724 0.677722 0.305006 0.678445 0.678394-0.000723 0.373387-0.305029 0.67767-0.678445 0.678393-0.373778-0.000723-0.677721-0.305006-0.678445-0.678393 0.000724-0.373388 0.304667-0.67767 0.678445-0.678394z" fill="#6bc9c7"/>
<path d="m0 3.2110532 0 0.4409558 18.815548 0c0.456277 0.0003618 0.778131 0.112161 1.017668 0.2713573 0.357857 0.2377091 0.538052 0.598524 0.633215 0.9158312 0.0474 0.1577491 0.07852 0.3046439 0.09046 0.4070361 0.0058 0.051377 0.0099 0.097236 0.01131 0.1243721l0 0.022613 0 0.011307 0 19.1759216c-0.000724 0.456604-0.112531 0.778072-0.271378 1.01759-0.238089 0.35783-0.609877 0.538011-0.927208 0.633167-0.157762 0.0474-0.29336 0.06721-0.39576 0.07915-0.05138 0.0058-0.09724 0.0099-0.124382 0.01131l-0.02262 0-0.01131 0-18.815548 0 0 0.440955 18.815548 0c0.01809-0.0011 0.540223-0.000723 1.085512-0.271357 0.27174-0.13604 0.547732-0.341006 0.757597-0.65578 0.21059-0.314775 0.351254-0.726424 0.350531-1.255028l0-19.1759216C21.008102 5.3864349 21.008826 4.8643433 20.737809 4.3190958 20.60212 4.0473767 20.385832 3.7714062 20.070672 3.5615565 19.756959 3.351345 19.342383 3.2110532 18.815548 3.2110532L0 3.2110532zm0 26.2199068 0 0.440956 26.990813 0c0.05464 0.000362 0.06576 0.01465 0.07915 0.02261 0.01845 0.01158 0.03474 0.03311 0.04523 0.06784l0.01131 0.04523 0 0.01131 0 1.402013c-0.000362 0.05427-0.003 0.07707-0.01131 0.09045-0.01158 0.01845-0.04442 0.03473-0.07915 0.04523l-0.04523 0.01131-0.01131 0-26.979506 0 0 0.440956 26.990813 0c0.01845-0.0011 0.12809-0.0093 0.271378-0.07915 0.07092-0.03509 0.1555-0.09226 0.214841-0.180905 0.05934-0.08864 0.09118-0.201256 0.09046-0.32789l0-1.402013c-0.0011-0.01845 0.0016-0.139387-0.06784-0.282664-0.03546-0.07091-0.09191-0.144543-0.180919-0.203518-0.08756-0.05898-0.202719-0.101759-0.327915-0.101759l-4.99788 0L0 29.43096zM0 0.96104827 0 1.3906975l20.760424 0c0.456277 0.0003618 0.778132 0.112161 1.017668 0.2713573 0.357857 0.2377091 0.54936 0.6098305 0.644523 0.9271378 0.0474 0.157749 0.06721 0.2933373 0.07915 0.3957295 0.0058 0.051377 0.0099 0.097236 0.01131 0.1243721l0 0.03392 0 24.4447771c-0.000723 0.456242-0.112531 0.778072-0.271378 1.01759-0.237727 0.35783-0.598569 0.549318-0.915901 0.644474-0.157761 0.0474-0.304667 0.06721-0.407067 0.07915-0.05102 0.0058-0.08594 0.0099-0.113074 0.01131l-0.03392 0-0.01131 0-20.760424 0 0 0.09045 21.992933 0c0.225787-0.13387 0.448226-0.315769 0.621908-0.576634 0.21059-0.314775 0.339947-0.737731 0.339223-1.266335l0-24.4447771C22.952978 3.1251234 22.953702 2.6030318 22.682686 2.0577843 22.546997 1.7860652 22.342016 1.5100947 22.026855 1.300245 21.713142 1.0900335 21.298567 0.96104827 20.771732 0.96104827l-0.01131 0-20.760424 0z" fill="#0095a8"/>
</svg>