<?xml version="1.0" encoding="UTF-8"?>
<!DOCTYPE svg PUBLIC "-//W3C//DTD SVG 1.0//EN" "http://www.w3.org/TR/2001/REC-SVG-20010904/DTD/svg10.dtd">
<svg width="896" height="128" viewBox="0 0 56 8" version="1" xmlns="http://www.w3.org/2000/svg">
<path d="M 1 1 H 7 V 7 H 1 z" fill="#00cc33"/>
<path d="M 0 0 H 2 L 4 1 1 4 0 2 z" fill="#ffcc33"/>
<path d="M 4 1 L 6 0 H 8 V 2 L 7 4 z" fill="#ff3366"/>
<path d="M 1 4 L 4 7 2 8 H 0 V 6 z" fill="#3333ff"/>
<path d="M 7 4 L 8 6 V 8 H 6 L 4 7 z" fill="#00ccff"/>
<path d="M 5.4080235,2.89144 C 5.2680733,2.7712815 5.1281232,2.6511232 4.9881726,2.5309647 4.8422669,2.6719186 4.6963609,2.8128724 4.5504552,2.9538263 4.7201588,3.0995302 4.8898619,3.2452341 5.0595654,3.390938 5.1757181,3.2244387 5.2918709,3.0579393 5.4080235,2.89144 z M 2.9559132,2.5930337 C 2.8357548,2.732984 2.7155965,2.8729341 2.5954379,3.0128844 2.7363918,3.1587904 2.8773458,3.3046962 3.0182994,3.4506021 3.1640036,3.2808987 3.3097074,3.1111952 3.4554112,2.9414918 3.2889121,2.8253391 3.1224127,2.7091864 2.9559132,2.5930337 z M 2.5844673,5.0877505 C 2.7244174,5.2079088 2.8643677,5.3280675 3.0043179,5.4482258 3.1502239,5.3072718 3.2961295,5.1663179 3.4420356,5.0253642 3.2723322,4.8796603 3.1026287,4.7339564 2.9329252,4.5882525 2.8167728,4.7547519 2.7006201,4.9212512 2.5844673,5.0877505 z M 5.1708707,5.3644686 C 5.2910289,5.2245184 5.4111873,5.0845681 5.531346,4.9446177 5.390392,4.798712 5.2494383,4.6528059 5.1084844,4.5069002 4.9627805,4.6766035 4.8170767,4.846307 4.6713727,5.0160103 4.837872,5.132163 5.0043712,5.2483158 5.1708707,5.3644686 z M 3.6950611,5.7637815 c 0.1844564,0 0.3689126,0 0.5533687,0 0.018882,-0.2019903 0.037763,-0.4039806 0.056644,-0.6059705 -0.2236713,0 -0.4473428,0 -0.671014,0 0.020333,0.2019899 0.040667,0.4039802 0.061001,0.6059705 z M 5.7576947,4.2197259 c 0,-0.1844563 0,-0.3689126 0,-0.5533689 -0.20199,-0.018881 -0.4039803,-0.037763 -0.6059703,-0.056644 0,0.2236714 0,0.4473428 0,0.6710142 0.20199,-0.020334 0.4039803,-0.040667 0.6059703,-0.061001 z M 4.2805925,2.2362186 c -0.1844564,0 -0.3689127,0 -0.553369,0 -0.018882,0.2019901 -0.037763,0.4039803 -0.056644,0.6059703 0.2236715,0 0.4473428,0 0.671014,0 -0.020334,-0.20199 -0.040667,-0.4039802 -0.061001,-0.6059703 z M 2.2423053,3.7133208 c 0,0.1844563 0,0.3689127 0,0.5533689 0.2019901,0.018881 0.4039804,0.037763 0.6059703,0.056644 0,-0.2236714 0,-0.4473427 0,-0.671014 -0.2019899,0.020333 -0.4039802,0.040667 -0.6059703,0.061001 z M 4.0071632,2.6534994 C 3.3821126,2.6414051 2.7937876,3.1190786 2.6781394,3.7335538 2.5456669,4.3252965 2.8700854,4.9749056 3.4195572,5.2290837 3.9619938,5.5021259 4.6744913,5.3452484 5.0514086,4.8688622 5.4526297,4.3982371 5.4625463,3.650685 5.07178,3.170825 4.8205551,2.8470724 4.417161,2.6503833 4.0071632,2.6534994 z m 0,0.4583736 C 4.4516068,3.1013204 4.8588239,3.4726 4.8934562,3.9150006 4.9487899,4.3560125 4.6250835,4.8024117 4.1872489,4.8828282 3.7522052,4.9824115 3.2764502,4.7007802 3.152826,4.2724036 3.0135789,3.8561708 3.2357714,3.3633027 3.6390789,3.190919 3.7542707,3.1386805 3.8807064,3.111728 4.0071632,3.111873 z" fill="#ffffff"/>
<text x="9" y="7" style="font-size:8px;fill:#373737;font-family:Ubuntu;">flixel-tools</text>
</svg>