<?xml version="1.0" encoding="UTF-8"?>
<!DOCTYPE svg PUBLIC "-//W3C//DTD SVG 1.0//EN" "http://www.w3.org/TR/2001/REC-SVG-20010904/DTD/svg10.dtd">
<svg width="1088" height="128" viewBox="0 0 68 8" version="1" xmlns="http://www.w3.org/2000/svg">
<path d="M 1 1 H 7 V 7 H 1 z" fill="#00cc33"/>
<path d="M 0 0 H 2 L 4 1 1 4 0 2 z" fill="#ffcc33"/>
<path d="M 4 1 L 6 0 H 8 V 2 L 7 4 z" fill="#ff3366"/>
<path d="M 1 4 L 4 7 2 8 H 0 V 6 z" fill="#3333ff"/>
<path d="M 7 4 L 8 6 V 8 H 6 L 4 7 z" fill="#00ccff"/>
<path d="m 3.3162486,3.75589 2.4913543,0 -0.64465,1.342617 -2.4622727,0 z m -0.6258685,0.8512534 0.4707642,-1.0354385 2.0357374,0 c 0,0 3.746e-4,-0.3510256 0,-0.3829127 -3.77e-4,-0.031988 -0.035872,-0.068119 -0.067859,-0.067859 -0.055389,4.565e-4 -1.4783332,0 -1.4783332,0 0,0 -0.041021,-0.089834 -0.058162,-0.1260218 -0.014376,-0.030358 -0.024341,-0.046137 -0.046048,-0.046048 -0.084613,3.349e-4 -0.7507941,-1.93e-4 -0.8033893,0 -0.032912,4.565e-4 -0.052518,0.022736 -0.052713,0.04544 -5.474e-4,0.063456 0,1.6128372 0,1.6128372 z" fill="#ffffff"/>
<text x="9" y="7" style="font-size:8px;fill:#373737;font-family:Ubuntu;">flixel-templates</text>
</svg>