<?xml version="1.0" encoding="UTF-8"?>
<!DOCTYPE svg PUBLIC "-//W3C//DTD SVG 1.0//EN" "http://www.w3.org/TR/2001/REC-SVG-20010904/DTD/svg10.dtd">
<svg width="992" height="128" viewBox="0 0 62 8" version="1" xmlns="http://www.w3.org/2000/svg">
<path d="M 1 1 H 7 V 7 H 1 z" fill="#00cc33"/>
<path d="M 0 0 H 2 L 4 1 1 4 0 2 z" fill="#ffcc33"/>
<path d="M 4 1 L 6 0 H 8 V 2 L 7 4 z" fill="#ff3366"/>
<path d="M 1 4 L 4 7 2 8 H 0 V 6 z" fill="#3333ff"/>
<path d="M 7 4 L 8 6 V 8 H 6 L 4 7 z" fill="#00ccff"/>
<path d="m 4.0017439,2.2089657 c -0.9893518,0 -1.7927782,0.7999383 -1.7927782,1.7892902 0,0.9893519 0.8034264,1.7927784 1.7927782,1.7927784 0.989352,0 1.7892905,-0.8034265 1.7892905,-1.7927784 0,-0.9893519 -0.7999385,-1.7892902 -1.7892905,-1.7892902 z M 3.6843454,2.3554572 c -0.014014,0.01609 -0.033194,0.025747 -0.055806,0.027903 -0.041458,0.020239 -0.069271,0.058597 -0.1011492,0.090685 -0.028254,0.027009 -0.069694,0.042924 -0.1081248,0.045343 -0.036543,0.00107 -0.088704,-0.016324 -0.1081245,0.020927 -0.023799,0.011422 -0.027819,0.044278 -0.038367,0.06627 -0.00145,0.033063 -0.033892,0.039634 -0.038367,0.069758 -0.01038,0.00487 -0.016774,0.028364 -0.027903,0.038367 -0.021145,0.034129 -0.058265,0.051757 -0.097661,0.045342 -0.037763,0.00199 -0.083528,-0.0089 -0.1011489,-0.045342 -0.0017,-0.021145 9.384e-4,-0.04248 0.00698,-0.062782 0.1949761,-0.1445169 0.4226028,-0.2480963 0.6696713,-0.296471 z m 0.4359869,0.1639311 c 0.091231,7.693e-4 0.1788119,0.024534 0.268568,0.034879 0.097039,0.010103 0.2016639,0.00556 0.2929831,0.04883 0.07461,0.035996 0.1700576,0.070046 0.1883463,0.1534675 0.083594,0.025659 0.1661866,0.065923 0.2546164,0.062782 0.028126,0.00229 0.050496,0.00229 0.069758,0.00349 0.2956592,0.3008964 0.4778416,0.7135765 0.4778416,1.1684449 0,0.06367 -0.00351,0.1265264 -0.010465,0.1883463 C 5.6353527,4.159918 5.6057867,4.123184 5.5817597,4.099407 5.5359851,4.0164994 5.4786232,3.9403742 5.4143406,3.869205 5.3146814,3.7930002 5.2301616,3.9306568 5.2922643,4.0156965 5.3632882,4.0728444 5.4937879,4.0491455 5.5259534,4.1447486 5.5212148,4.2436257 5.3965389,4.2548569 5.3201676,4.2563614 5.2282432,4.2313239 5.1717281,4.1241724 5.0829908,4.0819666 5.0085062,4.0811482 4.9393701,4.0580121 4.8667413,4.0540633 c -0.031882,-0.0038 -0.092835,0.00911 -0.1046368,-0.00698 0.080364,-0.038992 0.053256,-0.1399962 0.094173,-0.2057858 0.069147,-0.083452 0.044146,-0.1954972 -0.031391,-0.2581041 0.052804,-0.030019 0.1477759,0.014622 0.2162497,-0.010465 0.1223507,0.00845 0.1163037,-0.1232933 0.06627,-0.1918344 C 5.1079246,3.285905 4.9711163,3.2581963 4.8981324,3.290209 4.9093224,3.344265 4.8912824,3.380205 4.8353504,3.346015 4.7164154,3.3423427 4.6306362,3.2496526 4.5528307,3.1716252 4.5383013,3.1349899 4.4031066,3.0720527 4.4133149,3.119307 4.4614999,3.197963 4.5650646,3.2428523 4.5807338,3.3390443 4.6161409,3.4488307 4.5076528,3.4675229 4.4237785,3.4750723 4.5018406,3.4571573 4.4943336,3.3799853 4.4551696,3.3285805 4.4158117,3.2430874 4.3527874,3.1781787 4.273799,3.1262827 4.2133551,3.076388 4.0824822,3.0791572 4.0575494,3.1681375 4.0131252,3.2481069 3.9188393,3.2397737 3.8412999,3.2274317 3.7315097,3.2441298 3.6354592,3.1710452 3.6564415,3.0565247 3.6628688,2.9226157 3.8016464,2.9241232 3.9040821,2.9344484 l 0.041855,0.01744 C 3.9058912,2.9343694 3.8709812,2.8995154 3.8413,2.8681794 c 0.00194,-0.107065 0.1331007,-0.012999 0.1848586,0.013951 0.1057443,0.033219 0.2180086,0.055531 0.3278621,0.06627 0.1004414,0.0213 0.2075508,0.020397 0.2860073,-0.055806 C 4.679543,2.7994384 4.579294,2.7484639 4.4970246,2.7740061 4.3906266,2.7773961 4.2866077,2.7707061 4.1831139,2.7670261 4.060285,2.7439538 4.2843331,2.6365227 4.1796246,2.6205384 4.1031795,2.6624444 4.0638955,2.5362367 4.1203323,2.5193883 z m -0.4359869,0.087197 c 0.014,-0.00447 0.02327,0.00776 0.031391,0.010464 0.00934,0.00563 0.019876,0.00661 0.027903,0.013952 0.00982,0.00656 0.00429,0.021734 0.00349,0.031391 -0.00408,0.010898 -0.00396,0.019832 -0.00349,0.031391 0.00117,0.00721 0.00338,0.019028 0.010465,0.020926 0.00871,7.638e-4 0.016379,0.00436 0.01744,0.013951 -6.82e-4,0.012491 0.011078,0.017407 0.01744,0.024415 0.00492,0.013678 0.022031,0.00463 0.031391,0.010465 0.01026,-0.00153 0.00981,0.014101 0.00349,0.020926 -0.00504,0.00796 -0.014385,0.00464 -0.020926,0.010465 -0.010969,0.00506 -0.020569,0.011788 -0.031391,0.01744 -0.00702,0.00679 -0.016614,0.00892 -0.024416,0.013951 -0.012371,-9.96e-5 -0.025998,2.455e-4 -0.038367,0 -0.010953,0.00125 -0.020558,-0.00194 -0.031391,-0.00349 -0.013645,6.274e-4 -0.012431,-0.017203 -0.00698,-0.024415 0.00306,-0.00955 0.00524,-0.019576 0.013951,-0.024416 0.00442,-0.00759 0.0079,-0.01786 0.013951,-0.024415 0.00733,-0.0086 0.013965,-0.016442 0.010465,-0.027903 0.00196,-0.00946 5.81e-5,-0.019931 -0.00349,-0.027903 -0.00707,-0.00599 -0.00998,-0.015143 -0.01744,-0.020926 -0.011962,-0.00595 -0.011594,-0.016756 -0.010465,-0.027903 0.00423,-0.011166 0.00224,-0.026874 0.00698,-0.038367 z m -0.034879,0.094173 c 0.0046,1.899e-4 0.010516,-0.00405 0.013951,0 1.563e-4,0.00403 -0.00546,0.00687 -0.00698,0.010465 -0.00287,0.00396 -0.00408,0.00658 -0.00698,0.010465 -0.00267,0.00493 -0.00456,0.012339 -0.00698,0.01744 -0.012063,0.00375 -0.011496,0.013793 -0.01744,0.020926 -0.00469,0.00229 -0.012448,0.00534 -0.01744,0.00698 -0.00511,0.00153 -0.009,0.00265 -0.013951,0 -0.00581,-4.638e-4 -0.00543,-0.00942 -0.00349,-0.013951 0.0018,-0.0063 0.00317,-0.012142 0.00698,-0.01744 0.00448,-0.00229 0.00657,-0.00681 0.010465,-0.010465 0.00854,-0.00983 0.022293,-0.012385 0.031391,-0.01744 0.00287,-0.00334 0.00768,-0.00512 0.010465,-0.00698 z M 2.6449527,3.0321089 c 0.00957,0.021379 0.020868,0.042929 0.013952,0.069758 -0.00324,0.038765 0.0053,0.074057 0.013951,0.1116125 0.013316,0.040811 -0.00323,0.082187 -0.020927,0.1185886 -0.00746,0.025425 -0.028458,0.045087 -0.045343,0.06627 -0.027895,0.027289 -0.067552,0.00698 -0.097661,0.024415 -0.026021,0.00671 -0.052542,0.017478 -0.076734,0.027903 C 2.4839437,3.3001442 2.5547842,3.1596954 2.6449526,3.0321091 z M 3.963377,3.46112 c 0.014453,-0.00117 0.030906,-9.821e-4 0.045343,0 0.029034,0.00202 0.062341,0.00736 0.08371,0.041855 0.00631,0.010186 0.00615,0.022964 0.00698,0.034879 0.00262,0.011163 0.018403,0.0069 0.027903,0.010465 0.03741,0.016392 0.063837,0.043093 0.090685,0.062782 0.026846,0.019688 0.046599,0.030285 0.06627,0.027903 0.00935,-0.00185 0.019298,-6.274e-4 0.027903,0.00349 0.040961,0.019625 0.078277,0.036455 0.1116127,0.062782 0.029168,0.023038 0.05082,0.059293 0.062782,0.1011488 0.044679,0.069968 0.07484,0.1390114 0.1430038,0.1604433 0.052313,0.018398 0.082928,0.060146 0.1046368,0.090685 0.021709,0.030539 0.037717,0.048904 0.055806,0.055806 0.011621,0.00524 0.020771,0.015689 0.024416,0.027903 0.00418,0.023744 0.035328,0.01514 0.048831,0.020926 0.035616,2.344e-4 0.083307,-0.012148 0.1325401,-0.00349 0.026786,-0.00399 0.051662,-0.00436 0.073246,0.010464 0.026322,0.018084 0.03537,0.052542 0.034879,0.076734 -9.821e-4,0.048384 -0.023308,0.089555 -0.048831,0.1220763 -0.049038,0.067045 -0.07758,0.1362932 -0.1255642,0.2162496 -0.048429,0.072624 -0.085251,0.1475448 -0.1255643,0.2267133 -0.024776,0.048528 -0.078789,0.071559 -0.1185883,0.097661 -0.034496,0.018029 -0.059218,0.034224 -0.080221,0.055806 -8.2e-6,0.076343 -3.1e-6,0.1541119 0,0.2302011 0.00346,0.048663 -0.00393,0.097983 -0.00698,0.1395158 -0.00759,0.052408 -0.035329,0.08719 -0.055806,0.1255643 -0.00812,4.91e-4 -0.03061,0.03061 -0.038367,0.038367 -0.02238,0.010135 -0.042826,0.011264 -0.062782,0.00698 -0.030257,-0.0065 -0.051586,-0.028355 -0.073246,-0.048831 -0.00251,-6.82e-4 -0.00446,-0.00281 -0.00698,-0.00349 -0.041157,-0.011201 -0.082362,-0.021106 -0.1185882,-0.045343 -0.038442,-0.02572 -0.070639,-0.06534 -0.087198,-0.1185883 -0.039298,-0.044613 -0.053033,-0.1018086 -0.052319,-0.1534675 8.184e-4,-0.059039 0.00906,-0.1144385 0.00349,-0.1569553 -4.55e-5,-0.00117 -4.55e-5,-0.00232 0,-0.00349 -0.00312,-0.053559 0.015353,-0.1006705 0.024416,-0.1395158 0.014532,-0.030577 -0.00256,-0.064288 -0.00349,-0.087198 -0.022891,-0.045179 -0.033132,-0.097432 -0.048831,-0.1360278 -0.014775,-0.036325 -0.031018,-0.054746 -0.055806,-0.062782 -0.041157,0.00769 -0.081738,-0.00384 -0.1046368,-0.020926 -0.027503,-0.020525 -0.041741,-0.03707 -0.055806,-0.041855 -0.013675,-0.00505 -0.024492,-0.017219 -0.027903,-0.031391 -0.00435,-0.017484 -0.00887,-0.018217 -0.013951,-0.020926 -0.00508,-0.0027 -0.016185,-0.00616 -0.034879,-0.00698 -0.031372,-0.00136 -0.081866,-0.0027 -0.1255643,-0.031391 -0.00837,-0.0055 -0.016717,-0.00586 -0.024415,-0.013951 -0.043631,-0.016262 -0.073815,-0.045494 -0.087197,-0.076734 -0.01618,-0.037767 -0.025739,-0.071403 -0.038367,-0.087198 -4.56e-5,-0.00117 -4.56e-5,-0.00232 0,-0.00349 -0.026456,-0.037433 -0.065483,-0.079414 -0.09417,-0.1290387 -0.028688,-0.049625 -0.050292,-0.1078195 -0.038367,-0.1743948 0.00155,-0.00774 0.00521,-0.015042 0.010465,-0.020926 0.022724,-0.025924 0.043844,-0.046899 0.055806,-0.06627 0.011962,-0.019372 0.017574,-0.038629 0.01744,-0.073246 -4.56e-5,-0.00117 -4.56e-5,-0.00232 0,-0.00349 0.00501,-0.092492 0.054052,-0.1792997 0.1255641,-0.2232253 0.041422,-0.02957 0.1037865,-0.027749 0.1499796,-0.031391 0.04594,0.00207 0.087074,0.00273 0.1151005,-0.010465 0.038826,-0.00802 0.079341,-0.014679 0.1116126,-0.020926 z M 2.4496305,4.5772466 c 0.030342,0.017983 0.060308,0.034436 0.094173,0.045343 0.024188,0.00492 0.069758,0.030698 0.069758,0.024416 0.050184,0.013146 0.054811,0.064312 0.062782,0.101149 0.020022,0.049544 0.063907,0.074396 0.1151006,0.062782 0.048222,0.00235 0.089417,0.036862 0.1011489,0.083709 0.018979,0.045604 0.045551,0.098823 0.101149,0.104637 0.038133,0.00692 0.1131315,-0.013956 0.094173,0.052318 C 3.067146,5.0902926 3.004044,5.0964126 3.004205,5.1527497 3.010215,5.2044737 2.989606,5.268685 3.032108,5.309705 3.051962,5.327587 3.068163,5.348613 3.077451,5.372487 2.7921958,5.1804641 2.5727537,4.903829 2.4496305,4.5772466 z m 2.6647521,0.1674191 c 0.012,9.548e-4 0.038835,-0.00438 0.038367,0.013951 -0.00807,0.017358 -0.024988,0.029152 -0.034879,0.045343 -0.00798,0.019873 -0.028425,0.033642 -0.031391,0.055806 -0.020943,0.01394 -0.026642,0.040673 -0.041855,0.059294 -0.013921,0.014807 -0.028821,0.029685 -0.041855,0.045343 -0.00544,0.016234 -0.019715,0.022593 -0.031391,0.034879 -0.011078,0.00916 -0.025883,0.013831 -0.038367,0.020926 -0.025253,0.011316 -0.052582,0.021898 -0.080222,0.013951 -0.013302,-0.00757 -0.036848,-0.00818 -0.038367,-0.027903 0.00345,-0.021385 0.00806,-0.041242 0.020926,-0.059294 0.01155,-0.016597 0.019197,-0.0398 0.038367,-0.048831 0.015372,-0.016739 0.03263,-0.032881 0.048831,-0.04883 0.018583,-0.014385 0.033301,-0.032975 0.055806,-0.041855 0.020043,-0.00546 0.035511,-0.019069 0.052319,-0.031391 0.02456,-0.0198 0.059716,-0.022964 0.08371,-0.031391 z" fill="#ffffff"/>
<text x="9" y="7" style="font-size:8px;fill:#373737;font-family:Ubuntu;">haxeflixel.com</text>
</svg>